<?xml version="1.0" encoding="utf-8"?>
<!-- Generator: Adobe Illustrator 14.0.0, SVG Export Plug-In . SVG Version: 6.00 Build 43363)  -->
<!DOCTYPE svg PUBLIC "-//W3C//DTD SVG 1.1//EN" "http://www.w3.org/Graphics/SVG/1.1/DTD/svg11.dtd">
<svg version="1.1" id="Layer_1" xmlns="http://www.w3.org/2000/svg" xmlns:xlink="http://www.w3.org/1999/xlink" x="0px" y="0px"
	 width="184.5px" height="184.5px" viewBox="0 0 184.5 184.5" enable-background="new 0 0 184.5 184.5" xml:space="preserve">
<path id="path1927" fill="#676767" d="M36.055,183.78
	c-15.77-2.031-31.999-16.942-34.267-34.436C-0.385,134.722,2.751,117.651,14.84,108c5.303-3.614,12.515-7.663,18.875-7.181
	c0.191,6.474-0.19,14.343,0,20.817c-7.575,0.843-14.908,9.454-14.756,17.339c0.186,10.26,4.727,19.686,14.598,22.757
	c10.919,3.675,23.417,2.63,33.525-3.479c8.35-6.505,9.121-18.617,4.754-27.836c-1.963-5.072-6.197-8.796-11.945-8.78v18.058H43.684
	v-38.875H92.76v13.979l-13.441,0.125c12.543,7.15,13.83,22.584,13.188,33.291c0.451,18.393-17.721,33.389-35.742,35.395
	C50.242,184.097,44.726,184.122,36.055,183.78z"/>
<path id="path1925" fill="#D93A2C" d="M0.994,93.096L0.89,72.694h92l-0.012,20.5L0.994,93.096z"/>
<path id="path1917" fill="#4FB850" d="M36.057,65.528V43.694H0.39v-19h35.667v-24.5h21.333v24.5
	h35.5v19h-35.5l-0.352,21.788L36.057,65.528z"/>
<path fill="#D93A2C" d="M162.765,97.154c7.313,6.555,13.08,14.428,13.11,26.074c0.063,0.094-13.5,0.182-13.5-0.016
	c0-7.391-4.249-12.911-10.091-18.015C152.25,105.208,162.729,97.166,162.765,97.154z"/>
<path fill="#D93A2C" d="M132.625,61.979c0,8.047,4.216,13.929,10.015,19.188c-0.057-0.021-10.432,8.146-10.447,8.117
	c-7.437-6.791-13.317-15.062-13.317-27.18C118.891,62.104,132.625,61.932,132.625,61.979z"/>
<g>
	<path fill="#4FB850" d="M119.031,123.26c0-32,43.406-35.406,43.417-61.261c-0.073-0.021-8.156,0.016-8.156,0.016l14.888-15.661
		l14.945,15.625c0,0-8.25-0.083-8.302,0c-0.031,33.167-43.323,37.724-43.323,61.266C132.5,123.327,119.063,123.229,119.031,123.26z"
		/>
</g>
<path fill="#676767" d="M119.125,0.479H132.5v27.417h43.375v13.25h-43.25c0,0,0-9.417,0,20.833c0,0.042-13.729,0.146-13.75,0.125
	C118.875,24.479,119.125,0.479,119.125,0.479z"/>
<path fill="#676767" d="M132.458,123.146c0.08,22.833,0,47.167,0,47.167h8.167v-18.917h13.667v18.917h8.083c0,0,0-21.881,0-47.131
	c0.001-0.001,13.532,0,13.531,0c0,26.083-0.031,60.922-0.031,60.922H119c0,0,0-30.422,0-60.922
	C119,123.166,132.438,123.166,132.458,123.146"/>
</svg>
