<svg xmlns="http://www.w3.org/2000/svg" width="200" height="45" viewBox="0 0 200 45" xmlns:xlink="http://www.w3.org/1999/xlink">
  <defs>
    <path id="a" d="M10.1947337,22.6354598 L8.96590245,22.0714064 C8.50160291,21.8582855 8.29279302,21.297472 8.49951249,20.8187945 L8.54178119,20.7209176 C8.74850066,20.2422401 9.29246904,20.0269639 9.75676857,20.2400849 L11.6051594,21.088526 C12.5642816,20.0438449 13.7428816,18.7661258 13.9225178,18.5741983 C15.0437104,17.372 16.0981539,16.2589666 17.005524,15.3086564 C17.9150378,14.3614137 18.6738682,13.5726326 19.2047,13.0203774 C19.4730865,12.747697 19.6729762,12.5211875 19.8273912,12.3873579 C19.838853,12.383764 19.8529101,12.3844866 19.8657266,12.3846398 C19.7533987,11.4710114 19.868815,10.5119057 20.2600521,9.60596115 C21.2319495,7.35544526 23.5561625,6.16477175 25.7655623,6.62365616 L27.5823714,2.41667134 C27.822543,1.86053253 28.4469447,1.60693411 28.9770118,1.85024342 C29.5070789,2.09355272 29.7420856,2.74163347 29.501914,3.29777228 L27.6852926,7.50432238 C29.4965117,8.89096671 30.1917947,11.4676374 29.2198972,13.7181533 C28.8682719,14.5323732 28.3398624,15.2086695 27.703962,15.7173845 C27.7079617,15.9249708 27.6808408,16.2172408 27.6643161,16.5893824 C27.6218471,17.3658039 27.5600174,18.4750405 27.4866335,19.8060803 C27.4083636,21.1369608 27.3118116,22.6891609 27.1952758,24.3530338 C27.1709887,24.700936 27.0218616,26.6684273 26.9093229,28.1133833 L28.6758948,28.9242682 C29.1401943,29.1373891 29.3490042,29.6982026 29.1422847,30.1768801 L29.100016,30.2747571 C28.8932965,30.7534346 28.3493282,30.9687107 27.8850286,30.7555897 L26.7370742,30.2286602 C26.680767,30.894405 26.6243953,31.558366 26.5680838,32.214421 C26.4837501,33.0877839 26.4011772,33.9478909 26.3210348,34.779423 C26.2358565,35.6122898 26.1681426,36.41619 26.0769953,37.1791225 C25.9929514,37.9416693 25.9114827,38.6626855 25.8378076,39.3289397 C25.763719,39.9950041 25.6815252,40.6052593 25.6159511,41.146052 C25.5497757,41.6870896 25.488644,42.1590808 25.4336774,42.5479554 C25.3237062,43.3246456 25.2613975,43.7695312 25.2613975,43.7695312 C25.2613975,43.7695312 25.204187,43.3260402 25.104774,42.551166 C25.0542404,42.1633494 24.9993107,41.6927773 24.9410809,41.1529751 C24.8838277,40.6120585 24.8085044,40.0039872 24.7441308,39.3384355 C24.6790061,38.6746227 24.6077678,37.9538313 24.5332418,37.1924643 C24.4524014,36.4308034 24.3950709,35.6273242 24.320289,34.7965617 C24.2520472,33.9667177 24.1796958,33.1073804 24.1074891,32.2350872 C24.0454681,31.3633024 23.9812984,30.4769882 23.9181434,29.5906189 C23.9068807,29.4406522 23.8912832,29.2085918 23.8724319,28.9137433 L19.3006503,26.815222 L18.8232471,27.9206921 C18.6165276,28.3993696 18.0725592,28.6146458 17.6082597,28.4015248 L17.5392674,28.3698563 C17.0749679,28.1567353 16.866158,27.5959218 17.0728775,27.1172443 L17.5502808,26.0117742 L13.1051416,23.9713838 C12.7692405,24.2447732 12.5036952,24.459345 12.3403506,24.588758 C11.6587627,25.1332783 10.9769871,25.6782334 10.3070843,26.2140534 C9.62999953,26.7424097 8.96275802,27.2617412 8.31832346,27.7649761 C7.66945185,28.26357 7.05169807,28.7566537 6.44922179,29.2051822 C5.84971623,29.6571579 5.28308666,30.0846368 4.76105621,30.4799777 C4.23883802,30.8757534 3.74956189,31.2262272 3.32127082,31.5421876 C2.89380678,31.8585276 2.51646223,32.1322415 2.20411622,32.3529697 C1.57904875,32.7952956 1.2212766,33.0477821 1.2212766,33.0477821 C1.2212766,33.0477821 1.49989235,32.7032267 1.9861634,32.0992642 C2.22927991,31.7967533 2.52882275,31.4347176 2.87453515,31.021992 C3.22066106,30.6094563 3.60554877,30.1381424 4.03608841,29.6356947 C4.46704156,29.1334369 4.93206568,28.5889998 5.42567844,28.0139307 C5.91466642,27.4346553 6.44837519,26.8436124 6.99135399,26.2219252 C7.53771702,25.603875 8.10222417,24.9644626 8.67533404,24.315456 C9.17652943,23.7611917 9.68519958,23.1990594 10.1947337,22.6354598 Z M23.7276596,26.8945312 C23.5758271,24.2833098 23.3876892,20.8694643 23.3485742,20.0033684 C23.2939975,18.6597614 23.2467217,17.5390792 23.2142634,16.7558968 C23.2129414,16.7358037 23.212559,16.7193058 23.2118753,16.7000357 C23.0401467,16.643399 22.8691273,16.5781421 22.7006913,16.4998715 C22.6016114,16.4538299 22.5075184,16.3995766 22.4139142,16.3476562 C22.3307189,16.4174461 22.2434358,16.4921803 22.1475642,16.5766113 C21.5680164,17.0759262 20.7392601,17.7895241 19.7454278,18.6454184 C19.1649369,19.1416464 16.7727966,21.1441502 14.8297872,22.7597692 L18.3422681,24.3919878 L18.8188827,23.2746989 C19.0252607,22.7909038 19.5683305,22.5733262 20.0318631,22.7887256 L20.1007414,22.8207328 C20.5642739,23.0361322 20.7727389,23.6029414 20.5663609,24.0867365 L20.0897463,25.2040253 L23.7276596,26.8945312 Z M26.0500579,9.0395438 C24.6041518,8.37907708 22.8945632,9.07004359 22.2394281,10.5796906 C21.5844466,12.0889839 22.2275474,13.8546212 23.6737923,14.5152428 C25.1190207,15.1753999 26.8287947,14.484942 27.4839297,12.9752949 C28.1390648,11.4656479 27.4956251,9.69985574 26.0500579,9.0395438 Z"/>
  </defs>
  <g fill="none" fill-rule="evenodd">
    <path fill="#0664FF" d="M0.317776535,8.04126296 C0.317776535,6.86512621 0.73824607,5.96162493 1.5856539,5.33075913 C2.43306173,4.70306351 3.48746995,4.38604552 4.74564417,4.38604552 C5.93266201,4.38604552 7.01617966,4.66502135 8.00590025,5.22297301 L8.00590025,7.36284445 C7.19407061,6.98876323 6.2755064,6.80172261 5.25020761,6.80172261 C3.87883005,6.80172261 3.19314127,7.13142132 3.19314127,7.78764856 C3.19314127,8.12051745 3.38396976,8.38047221 3.77856424,8.56434264 C4.16668997,8.75455344 4.64214398,8.91940279 5.2016919,9.06206089 C5.7644742,9.20471898 6.32402212,9.3917596 6.88357003,9.63269327 C7.43664919,9.87362695 7.9121032,10.2825802 8.30346331,10.8595529 C8.69805779,11.4333555 8.89535504,12.165667 8.89535504,13.0501472 C8.89535504,14.032903 8.48782303,14.8444691 7.67599339,15.4911858 C6.86092937,16.1347323 5.78388048,16.4549204 4.44484673,16.4549204 C3.07346918,16.4549204 1.80882619,16.1379025 0.657386544,15.5070367 L0.657386544,13.0089349 C1.70856038,13.6968639 2.8308906,14.0424135 4.03731472,14.0424135 C4.85884751,14.0424135 5.39898914,13.9473081 5.64803648,13.7570973 C5.89708382,13.5700567 6.0199903,13.2879107 6.0199903,12.9138295 C6.0199903,12.5714501 5.82269306,12.2924742 5.42809857,12.0832423 C5.03673846,11.8708403 4.56128445,11.6869699 4.0082053,11.531631 C3.44865738,11.373122 2.88910946,11.1860814 2.33279592,10.9736794 C1.77648238,10.7581071 1.30102837,10.403047 0.909668265,9.90849893 C0.515073778,9.41712104 0.317776535,8.79576578 0.317776535,8.04126296 Z M10.3249515,10.5457051 C10.3249515,8.6657884 10.7486554,7.16946348 11.602532,6.04721979 C12.4531742,4.9249761 13.8083798,4.36068408 15.6616802,4.36068408 C17.4147147,4.36068408 18.7408109,4.9091252 19.6432032,5.99966709 C20.5391268,7.09020898 20.9919401,8.43436527 20.9919401,10.0321359 C20.9919401,10.6883632 20.9757682,11.1734007 20.9434244,11.4872485 L13.2003162,11.4872485 C13.274707,12.5048763 13.5852075,13.1801246 14.1253492,13.5256742 C14.6687252,13.8680536 15.3738202,14.0424135 16.2341656,14.0424135 C17.637887,14.0424135 18.9930926,13.7380763 20.3030169,13.1389123 L20.3030169,15.4024207 C18.9769207,16.1062007 17.4761679,16.4549204 15.8007585,16.4549204 C15.2703201,16.4549204 14.7722254,16.4168783 14.3064745,16.3344536 C13.8374893,16.2456886 13.3523321,16.0744989 12.851003,15.8018634 C12.3529084,15.5355683 11.9227357,15.196359 11.5572506,14.7842356 C11.2014687,14.3721122 10.9039057,13.8014799 10.6677958,13.0723385 C10.4381548,12.3463673 10.3249515,11.5030994 10.3249515,10.5457051 Z M13.2003162,9.54075806 C13.274707,8.52947066 13.5108168,7.80032928 13.9151144,7.35333392 C14.3161777,6.90316837 14.8757256,6.67808559 15.5937582,6.67808559 C16.3085564,6.67808559 16.8681043,6.95072107 17.2788707,7.50550255 C17.6864027,8.06028404 17.9322156,8.73553236 18.0130752,9.54075806 L13.2003162,9.54075806 Z M22.9293343,16.2742202 L22.9293343,5.70484036 C24.7017752,4.82670052 26.4386378,4.38604552 28.1496253,4.38604552 L28.1949067,4.38604552 C29.4918935,4.38604552 30.5721767,4.67453189 31.4389908,5.25150463 C32.9268061,4.67453189 34.3661057,4.38604552 35.7568895,4.38604552 C37.3708457,4.38604552 38.6290199,4.8140198 39.5281778,5.67313856 C40.4305701,6.53225732 40.8801491,7.72107479 40.8801491,9.23959096 L40.8801491,16.2742202 L38.0047843,16.2742202 L38.0047843,9.06206089 C38.0047843,8.31706861 37.8139559,7.75277658 37.4290645,7.37235499 C37.0474076,6.9919334 36.3261406,6.80172261 35.2782011,6.80172261 C34.453434,6.80172261 33.6351356,6.89365783 32.8330091,7.07752826 C33.1726191,7.45160949 33.3440413,8.17758069 33.3440413,9.25861204 L33.3440413,16.2742202 L30.4719109,16.2742202 L30.4719109,8.99548711 C30.4719109,8.27902645 30.2810824,7.74009586 29.9058942,7.38503571 C29.5274717,7.02680538 28.8223766,6.84610513 27.7873747,6.84610513 C27.1016859,6.84610513 26.4418721,6.90950873 25.8046991,7.03314574 L25.8046991,16.2742202 L22.9293343,16.2742202 Z M42.7399182,12.447813 C42.7399182,12.2132197 42.7625588,11.9691159 42.8110746,11.7186717 C42.8563559,11.4713976 42.9824968,11.1638902 43.179794,10.7866388 C43.38356,10.4125575 43.655248,10.086029 43.9980924,9.80071281 C44.3441712,9.5185668 44.851969,9.27763312 45.5279546,9.07474161 C46.2007059,8.87185009 46.9931292,8.77357452 47.9084591,8.77357452 C48.561804,8.77357452 49.2636647,8.8242974 50.0108067,8.93208351 C50.0108067,7.44209895 49.1666333,6.69710667 47.4815208,6.69710667 C46.1327839,6.69710667 44.9651723,6.89682801 43.968983,7.2931005 L43.968983,4.97886916 C45.0719069,4.58259667 46.2945029,4.38604552 47.6400054,4.38604552 C49.3477586,4.38604552 50.6512142,4.81084962 51.5536065,5.66045784 C52.4559988,6.51323624 52.9088121,7.74326604 52.9088121,9.35371744 L52.9088121,12.5143868 C52.9088121,13.592248 52.4980458,14.5179405 51.676513,15.2946346 C50.8549802,16.0713287 49.5935716,16.4549204 47.8858184,16.4549204 C46.1230807,16.4549204 44.8260939,16.0649883 43.9883893,15.2882942 C43.1571533,14.50843 42.7399182,13.5637164 42.7399182,12.447813 Z M45.6152829,12.0927529 C45.6217517,11.0751251 46.5209096,10.5710665 48.3192255,10.5710665 C48.7914451,10.5774069 49.3639305,10.6281298 50.0334474,10.7168948 L50.0334474,12.1973688 C50.0334474,13.3830161 49.3186492,13.9726696 47.8858184,13.9726696 L47.8631777,13.9726696 C46.3624249,13.9726696 45.6152829,13.344974 45.6152829,12.0927529 Z M55.1631757,16.2742202 L55.1631757,5.6667982 C56.9162102,4.8140198 58.7436355,4.38604552 60.6422172,4.38604552 C62.3111578,4.38604552 63.611379,4.81084962 64.5525839,5.66045784 C65.4937888,6.51323624 65.9595396,7.70839407 65.9595396,9.23959096 L65.9595396,16.2742202 L63.0874093,16.2742202 L63.0874093,9.00182747 C63.0874093,8.68797966 63.0582998,8.42485473 62.9968466,8.21879303 C62.9418621,8.00956116 62.82219,7.78447838 62.6507678,7.55939561 C62.4728769,7.33114266 62.185017,7.15678276 61.7904225,7.04265628 C61.3925936,6.92852981 60.8815614,6.87146657 60.2573259,6.87146657 C59.5586996,6.87146657 58.8147919,6.94121053 58.0385405,7.07752826 L58.0385405,16.2742202 L55.1631757,16.2742202 Z M67.1142136,6.98242287 L67.1142136,4.56674577 L69.129233,4.56674577 L69.129233,1.09856894 L72.0045978,1.09856894 L72.0045978,4.56674577 L74.8314468,4.56674577 L74.8314468,6.98242287 L72.0045978,6.98242287 L72.0045978,12.7584907 C72.0045978,13.2625493 72.1113323,13.6017585 72.3248015,13.7761184 C72.5382706,13.9536485 72.9166932,14.0424135 73.4633036,14.0424135 C73.9775702,14.0424135 74.4336179,13.9568187 74.8314468,13.7887991 L74.8314468,16.112541 C74.2718989,16.340794 73.6573665,16.4549204 72.9975527,16.4549204 L72.9522714,16.4549204 C71.7523161,16.4549204 70.8240487,16.112541 70.1448287,15.424612 C69.4656087,14.7398531 69.129233,13.7919693 69.129233,12.587301 L69.129233,6.98242287 L67.1142136,6.98242287 Z M76.8076536,0.397959184 L79.7509403,0.397959184 L79.7509403,2.97848563 L76.8076536,2.97848563 L76.8076536,0.397959184 Z M76.8561693,4.56674577 L79.7315341,4.56674577 L79.7315341,16.27105 L76.8561693,16.27105 L76.8561693,4.56674577 Z M81.8435849,10.4220681 C81.8435849,8.46923724 82.3352108,6.97608251 83.3022907,5.93943367 C84.2790738,4.90278484 85.673092,4.38604552 87.4875798,4.38604552 C88.6584257,4.38604552 89.806631,4.60795811 90.9386643,5.04861312 L90.9386643,7.36284445 C89.9942251,6.98876323 89.0045045,6.80172261 87.9695026,6.80172261 C86.869813,6.80172261 86.054749,7.04899664 85.5178417,7.54354471 C84.9874032,8.03809278 84.7189496,8.99548711 84.7189496,10.4220681 C84.7189496,11.8327981 84.9874032,12.7838521 85.5178417,13.2847405 C86.054749,13.7919693 86.869813,14.0424135 87.9695026,14.0424135 C88.9592232,14.0424135 89.9457094,13.8458624 90.9386643,13.4559302 L90.9386643,15.7701616 C89.806631,16.2266675 88.6584257,16.4549204 87.4875798,16.4549204 C85.673092,16.4549204 84.2790738,15.9381811 83.3022907,14.8951919 C82.3352108,13.8553729 81.8435849,12.3653884 81.8435849,10.4220681 Z M93.041012,16.2742202 L93.041012,5.48609795 C94.577343,4.73476531 96.1718929,4.36068408 97.8278959,4.36068408 C99.1345859,4.36068408 100.182525,4.68404243 100.974949,5.32441877 C102.514514,4.68404243 103.989392,4.36068408 105.409285,4.36068408 C106.861522,4.36068408 107.983852,4.73476531 108.782745,5.48609795 C109.581637,6.23426041 109.9827,7.28676014 109.9827,8.64676732 L109.9827,16.2742202 L108.252306,16.2742202 L108.252306,8.64676732 C108.252306,8.31706861 108.223197,8.02224188 108.161743,7.76862748 C108.097056,7.51501309 107.974149,7.23920744 107.786555,6.95072107 C107.592492,6.66223469 107.285226,6.43398174 106.864757,6.2818131 C106.441053,6.12330411 105.917083,6.04721979 105.292847,6.04721979 C104.290189,6.04721979 103.187265,6.24060077 101.990544,6.63053289 C102.249295,7.19482492 102.375436,7.86690306 102.375436,8.64676732 L102.375436,16.2742202 L100.648276,16.2742202 L100.648276,8.64676732 C100.648276,8.30121771 100.615932,8.0032208 100.54801,7.74326604 C100.483323,7.48965165 100.353948,7.22018636 100.163119,6.94121053 C99.9722906,6.65906451 99.6585556,6.43398174 99.2251486,6.2818131 C98.7917415,6.12330411 98.2515999,6.04721979 97.6144268,6.04721979 C96.6408781,6.04721979 95.6932045,6.18670771 94.7681715,6.46885372 L94.7681715,16.2742202 L93.041012,16.2742202 Z M112.055938,10.5710665 L112.055938,10.491812 L112.055938,10.3967066 C112.055938,6.37374832 113.796035,4.36068408 117.282698,4.36068408 C118.013668,4.36068408 118.673482,4.47481055 119.265373,4.70306351 C119.857265,4.9249761 120.329485,5.19127121 120.678798,5.49560849 C121.028111,5.80311594 121.328909,6.19938843 121.594128,6.69076631 C121.859347,7.18531438 122.046941,7.60694831 122.160144,7.94932774 C122.270113,8.28853699 122.357442,8.70700074 122.418895,9.19837863 C122.483583,9.67073543 122.512692,9.96873234 122.512692,10.0891992 L122.512692,10.5932578 L122.467411,11.4175046 L113.783098,11.4175046 C113.889832,12.5936413 114.258552,13.4464197 114.882787,13.9758398 C115.510257,14.5052598 116.43529,14.7715549 117.657886,14.7715549 C119.391514,14.7715549 120.749954,14.4862387 121.746144,13.9029256 L121.746144,15.6465246 C120.597938,16.1854552 119.200686,16.4549204 117.564089,16.4549204 L117.496167,16.4549204 C116.794306,16.4549204 116.153899,16.3724958 115.57171,16.2108166 C114.989522,16.0491374 114.417036,15.7638212 113.854254,15.3580382 C113.291472,14.9522552 112.851596,14.3467508 112.531392,13.5320146 C112.214423,12.7172783 112.055938,11.7313524 112.055938,10.5710665 Z M113.783098,9.91800947 C113.863957,8.48191796 114.164755,7.46429021 114.701662,6.85878585 C115.235335,6.25645166 116.098914,5.95528457 117.282698,5.95528457 C118.052481,5.95528457 118.689654,6.12647429 119.207155,6.46885372 C119.72789,6.81440333 120.086906,7.24237762 120.287438,7.75911694 C120.481501,8.27268609 120.617345,8.69432002 120.685267,9.02401873 C120.749954,9.35054726 120.785533,9.65171435 120.785533,9.91800947 L113.783098,9.91800947 Z M124.466258,16.2742202 L124.466258,5.49243831 C126.267808,4.75378639 128.195499,4.38604552 130.262269,4.38604552 L130.262269,5.97747583 C128.958813,6.00917763 127.600373,6.20889897 126.196652,6.58615038 L126.196652,16.2742202 L124.466258,16.2742202 Z M130.776536,10.3713452 C130.776536,9.14765575 130.944723,8.11100691 131.277865,7.25822852 C131.61424,6.40545012 132.067054,5.78409486 132.629836,5.39416273 C133.192618,5.0042306 133.73276,4.73476531 134.243792,4.58576685 C134.758059,4.43676839 135.291731,4.36068408 135.851279,4.36068408 C136.873344,4.36068408 137.730455,4.50017199 138.422612,4.77914782 C139.111535,5.05812366 139.599927,5.41635399 139.881318,5.857009 C140.162709,6.297664 140.350303,6.67808559 140.447335,6.99510358 C140.544366,7.31846194 140.592882,7.63547993 140.592882,7.94932774 L140.592882,16.7655981 C140.592882,17.2855076 140.515257,17.7642048 140.366475,18.1985194 C140.211225,18.632834 139.962178,19.0608083 139.612865,19.4761019 C139.263551,19.8913955 138.726644,20.2147538 138.008612,20.4493471 C137.287345,20.6839405 136.417296,20.7980669 135.398466,20.7980669 C134.285839,20.7980669 133.153806,20.658579 131.999132,20.3732628 L131.999132,18.7818325 C133.021196,19.0639785 134.091776,19.2066366 135.210872,19.2066366 C135.974186,19.2066366 136.614593,19.1400628 137.12886,19.0069153 C137.649595,18.8737677 138.021549,18.6835569 138.260893,18.4362829 C138.4873,18.1858387 138.652253,17.9417348 138.733113,17.697631 C138.820441,17.4535271 138.862488,17.1618706 138.862488,16.8194911 L138.862488,15.6528649 C137.969799,15.9381811 137.035063,16.077669 136.064749,16.077669 C135.53431,16.077669 135.036215,16.0364567 134.576933,15.9445215 C134.117651,15.8589266 133.648666,15.6845667 133.169978,15.424612 C132.688055,15.1646572 132.277288,14.8286182 131.93121,14.4164948 C131.5916,14.0043714 131.310208,13.4527601 131.096739,12.7680012 C130.88327,12.0800722 130.776536,11.2811868 130.776536,10.3713452 Z M132.503695,10.3650048 C132.503695,9.42663158 132.61043,8.63725678 132.807727,8.0032208 C133.011493,7.36918481 133.292884,6.91267891 133.661603,6.63053289 C134.027088,6.34838688 134.373167,6.15500591 134.709543,6.05673033 C135.049153,5.95845475 135.427575,5.90773187 135.851279,5.90773187 C137.863064,5.90773187 138.862488,6.56395912 138.862488,7.87958378 L138.862488,13.9473081 C137.953627,14.3087086 137.022125,14.4894089 136.064749,14.4894089 C135.560185,14.4894089 135.120309,14.4418562 134.748355,14.3467508 C134.369933,14.2579858 134.001213,14.0772855 133.62926,13.8014799 C133.263775,13.5256742 132.982383,13.1040403 132.791555,12.5334079 C132.600726,11.9659457 132.503695,11.2431447 132.503695,10.3650048 Z M142.462354,10.5710665 L142.462354,10.491812 L142.462354,10.3967066 C142.462354,6.37374832 144.205686,4.36068408 147.695583,4.36068408 C148.420084,4.36068408 149.079898,4.47481055 149.675024,4.70306351 C150.27015,4.9249761 150.739135,5.19127121 151.085214,5.49560849 C151.434527,5.80311594 151.741793,6.19938843 152.003778,6.69076631 C152.268998,7.18531438 152.453357,7.60694831 152.566561,7.94932774 C152.682998,8.28853699 152.767092,8.70700074 152.83178,9.19837863 C152.889999,9.67073543 152.922342,9.96873234 152.922342,10.0891992 L152.922342,10.5932578 L152.873827,11.4175046 L144.195982,11.4175046 C144.302717,12.5936413 144.668202,13.4464197 145.292438,13.9758398 C145.916673,14.5052598 146.841706,14.7715549 148.067537,14.7715549 C149.801165,14.7715549 151.159605,14.4862387 152.15256,13.9029256 L152.15256,15.6465246 C151.007589,16.1854552 149.610336,16.4549204 147.976974,16.4549204 L147.925224,16.4549204 C147.203957,16.4549204 146.563549,16.3724958 145.978126,16.2108166 C145.399172,16.0491374 144.826687,15.7638212 144.263904,15.3580382 C143.697888,14.9522552 143.261246,14.3467508 142.941043,13.5320146 C142.620839,12.7172783 142.462354,11.7313524 142.462354,10.5710665 Z M144.195982,9.91800947 L151.191949,9.91800947 C151.191949,9.65171435 151.159605,9.35054726 151.091683,9.02401873 C151.026995,8.69432002 150.894386,8.27268609 150.693854,7.75911694 C150.496557,7.24237762 150.13754,6.81440333 149.616805,6.46885372 C149.099304,6.12647429 148.458897,5.95528457 147.695583,5.95528457 C146.505331,5.95528457 145.644985,6.25645166 145.114547,6.85878585 C144.577639,7.46429021 144.270373,8.48191796 144.195982,9.91800947 L144.195982,9.91800947 Z" transform="translate(47 12)"/>
    <g transform="translate(1)">
      <path fill="#0664FF" d="M18.7233246,5.48653846 L18.7203945,5.48076923 L6.2411082,12.5278846 C5.68731972,12.8192308 5.23022448,13.2692308 4.92842441,13.8115385 L0.451235053,11.4057692 C0.835077858,10.6673077 1.44453819,10.0586538 2.18878302,9.66634615 L18.2310682,0.605769231 L18.2369284,0.614423077 C18.8727596,0.225 19.6257947,0 20.4315716,0 C21.1875368,0 21.8936904,0.199038462 22.5031507,0.542307692 L38.6333388,9.65480769 C39.4830671,10.0961538 40.1569896,10.8173077 40.5261819,11.6913462 L36.0255518,14.0278846 C35.732542,13.3817308 35.2197749,12.8480769 34.5839437,12.5192308 L22.0401952,5.43173077 C21.5655194,5.16346154 21.0175911,5.01057692 20.4286415,5.01057692 C19.8016006,5.01057692 19.2185111,5.18365385 18.7233246,5.48653846 Z M40.8397024,13.0644231 C40.8397024,13.125 40.8455626,13.1855769 40.8455626,13.2461538 L40.8455626,31.7653846 C40.8455626,33.3576923 39.9050012,34.7365385 38.5395757,35.4028846 L22.6262148,44.4403846 C22.1808399,44.7144231 21.6797932,44.9076923 21.1465154,45 L21.1465154,39.975 C21.5010573,39.8942308 21.8350884,39.7557692 22.1368885,39.5711538 L34.5106913,32.5413462 C35.5743167,32.025 36.3039111,30.9519231 36.3039111,29.7115385 L36.3039111,15.4182692 L40.8397024,13.0644231 Z M0.0556718572,13.0644231 L4.68815639,15.4182692 L4.68815639,29.7115385 C4.68815639,30.9519231 5.41775073,32.025 6.48137621,32.5413462 L6.38175289,32.5413462 L18.7584858,39.5711538 L18.6412819,39.5711538 C18.9430819,39.7557692 19.2771131,39.8942308 19.6316549,39.975 L19.6316549,45 C19.095447,44.9076923 18.5944003,44.7144231 18.1519555,44.4403846 L18.2691594,44.4432692 L2.35286849,35.4028846 L2.30598693,35.4028846 C0.937631279,34.7365385 0,33.3576923 0,31.7653846 L0,13.2461538 C0,13.1855769 0.0527417594,13.125 0.0556718572,13.0644231 Z"/>
      <g fill-rule="nonzero" stroke-linecap="round" stroke-linejoin="round">
        <use fill="#0664FF" xlink:href="#a"/>
        <path stroke="#FFFFFF" stroke-width="1.758" d="M4.10240002,30.9209598 C4.101359,30.9222101 4.10026972,30.9235185 4.0991315,30.9248858 C4.10017479,30.9236325 4.10121704,30.9223806 4.10225825,30.92113 Z M8.73930035,22.9344672 L8.59925138,22.8701825 C7.69727641,22.4561615 7.29806918,21.3839863 7.69263268,20.4703391 L7.73490138,20.3724621 C8.13553619,19.4447562 9.2070769,19.0206928 10.1234196,19.4413088 L11.390636,20.0229815 C12.2008342,19.1418327 13.1085276,18.1576966 13.2797597,17.9747501 C14.3010249,16.8796988 15.3296042,15.7911751 16.3715459,14.6999299 C16.7754335,14.279288 17.1684288,13.8702793 17.6135005,13.4072945 C18.1445366,12.8549517 18.1445366,12.8549517 18.5783071,12.4038483 C18.6716632,12.3089986 18.760149,12.2163393 18.9238065,12.0441156 C18.9337219,12.0337548 18.9433892,12.0236767 18.9528272,12.013864 C18.9087939,11.0744968 19.0746392,10.134033 19.4531723,9.25750573 C20.4739128,6.89388931 22.8119304,5.48315109 25.2235286,5.6619257 L26.7754916,2.06821593 C27.2082163,1.06620313 28.3582203,0.599133349 29.3436629,1.05146736 C30.3145371,1.49711427 30.7355282,2.65808601 30.3087938,3.64622769 L28.7467061,7.26338221 C30.4966245,8.97684313 31.0480532,11.701752 30.026777,14.0666087 C29.6827928,14.8631351 29.1855132,15.5632891 28.5696277,16.1315555 C28.5659196,16.1963582 28.5613389,16.2751526 28.5557066,16.3722436 C28.5501074,16.4687654 28.5459011,16.5485596 28.5419105,16.6373854 C28.5164101,17.1035853 28.3886541,19.411042 28.3640238,19.8576802 C28.2722587,21.4180283 28.177021,22.915463 28.0720482,24.4142414 C28.0494372,24.7381336 27.9327542,26.2779734 27.8329697,27.5702773 L29.0425458,28.1254921 C29.9445208,28.5395132 30.343728,29.6116883 29.9491645,30.5253355 L29.9068958,30.6232125 C29.506261,31.5509184 28.4347203,31.9749819 27.5183776,31.5543658 L27.5070726,31.5491767 C27.4850045,31.8080496 27.4638625,32.0551534 27.4429209,32.298897 C27.3884772,32.8627186 27.2079504,34.7385759 27.1953803,34.8688433 C27.1790215,35.0287992 27.1625486,35.1950141 27.1432606,35.3937347 C27.1180628,35.6546707 27.1180628,35.6546707 27.0931322,35.9139716 C27.0339349,36.5278296 26.9956332,36.8988712 26.9506115,37.2754079 C26.9013035,37.7227897 26.738552,39.1799016 26.7113265,39.4261042 C26.6884616,39.6316616 26.6637936,39.8415703 26.6356194,40.0721189 C26.6103674,40.2787554 26.5108503,41.0672485 26.4883559,41.2527576 C26.4201409,41.8104703 26.3586683,42.2837268 26.303904,42.6711705 C26.2558251,43.0107352 26.2274351,43.2118467 26.1766235,43.5725183 C26.1395561,43.8361182 26.1395561,43.8361182 26.1318084,43.8914371 L25.225606,50.3617467 L24.3897142,43.8819786 C24.3825455,43.8264075 24.3825455,43.8264075 24.348646,43.5630921 C24.3023191,43.2029107 24.3023191,43.2029107 24.2332354,42.6647299 C24.1823696,42.2743635 24.1268385,41.7996901 24.0670569,41.2454859 C24.0444116,41.0315375 23.9531745,40.2235067 23.9465127,40.1631369 C23.9164912,39.89108 23.8917811,39.6554072 23.8694239,39.4242503 C23.8528395,39.2552061 23.7050284,37.7532616 23.6592446,37.2852277 C23.618602,36.9023017 23.5857623,36.5380267 23.5336896,35.9156949 C23.5121451,35.6574531 23.5121451,35.6574531 23.4903188,35.3976722 C23.4737126,35.2012743 23.4592976,35.0350591 23.4443395,34.8685949 C23.4023895,34.358467 23.2526916,32.5624153 23.2389515,32.3966112 C23.2352651,32.3521187 23.2352651,32.3521187 23.2307986,32.2974572 C23.1988872,31.8489005 23.1671559,31.4064894 23.102475,30.5059967 C23.0719202,30.0798564 23.0719202,30.0798564 23.0417053,29.6564406 C23.0382141,29.6099539 23.0343159,29.5558032 23.0300184,29.4941368 L19.7510867,27.9890543 L19.6301269,28.2691476 C19.2294921,29.1968534 18.1579514,29.6209169 17.2416086,29.2003009 L17.1726164,29.1686323 C16.2706414,28.7546113 15.8714342,27.6824362 16.2659977,26.7687889 L16.4027546,26.452116 L13.2348234,24.9979846 C13.0909912,25.114204 12.9750723,25.2072003 12.8889382,25.2754369 C12.1875372,25.8357859 11.5082887,26.3787386 10.847786,26.9069588 C10.6024706,27.0983882 9.23844052,28.1615985 8.85383885,28.4618975 C8.92490797,28.4072879 7.39024529,29.6003399 6.97832191,29.9069865 C6.23439967,30.4678399 5.74892523,30.8343525 5.29192333,31.1804464 C5.05683315,31.3586152 4.82266465,31.5322916 4.52522506,31.7501115 C4.56170919,31.7233936 3.98697332,32.1432762 3.84409982,32.2486761 C3.41559313,32.5657877 3.03224602,32.8439668 2.7118104,33.0704116 C2.43817652,33.2640473 2.27616443,33.3786081 1.9854984,33.5840378 C1.772976,33.7341695 1.772976,33.7341695 1.72804862,33.7658757 L-3.43742353,37.4112459 L0.537850509,32.4951476 C0.572416754,32.4524006 0.572416754,32.4524006 0.737397602,32.2480488 C0.900240948,32.0462587 1.08903814,31.8120469 1.30107846,31.5486874 C1.53482483,31.2578358 1.8263146,30.9046593 2.20122762,30.4570733 C2.3220401,30.313081 2.88105898,29.6406205 2.74818176,29.8002349 C2.98858895,29.5114537 3.17609905,29.2885642 3.36906609,29.0633684 C3.54726463,28.8556855 4.48004081,27.766197 4.75406609,27.4469977 C4.97507953,27.185176 5.20615979,26.9190541 5.52877887,26.5528435 C5.61775291,26.4518475 5.72727575,26.3278222 5.92740659,26.1012003 C6.08808033,25.9191235 6.21010616,25.7803306 6.33285867,25.6398083 C6.58247263,25.357443 6.74472443,25.1737978 7.16454913,24.6984873 C7.58775476,24.2192647 7.58775476,24.2192647 8.02342874,23.7259683 C8.1063479,23.6342693 8.4147761,23.2932733 8.73930035,22.9344672 Z M22.7658717,25.4784309 C22.6343011,23.1671391 22.5024504,20.749048 22.4703921,20.0390397 C22.4462312,19.4442298 22.4224321,18.8664329 22.3949766,18.2059785 C22.3906965,18.1030189 22.3792547,17.8284701 22.3675608,17.5471474 C21.9623545,17.8961704 21.3762013,18.4009493 20.3165258,19.3134927 C19.8317557,19.7278945 18.1219525,21.1605999 16.4584117,22.5474104 L17.8898455,23.2125849 L18.0104591,22.9298404 C18.4093235,21.9948151 19.483168,21.5645858 20.4022462,21.9916732 L20.4711245,22.0236804 C21.3699585,22.4413605 21.7652725,23.5162059 21.3747846,24.431595 L21.2322346,24.7657633 L22.7658717,25.4784309 Z M22.3576927,17.3095477 C22.3484905,17.0877499 22.3404268,16.8926032 22.3372532,16.813598 C22.3353191,16.7806352 22.3353191,16.7806352 22.3343731,16.756079 C22.3341196,16.7489337 22.3341196,16.7489337 22.3339204,16.7429844 C22.3336983,16.7363002 22.3336983,16.7363002 22.3335218,16.7312016 L22.7240346,16.7173454 L22.9787727,17.0210143 C22.895301,17.091036 22.8138611,17.1609741 22.7212423,17.2424714 C22.6664499,17.2896783 22.6091533,17.3390391 22.5478482,17.3918497 C22.4835102,17.3655147 22.4201893,17.3381272 22.3576927,17.3095477 Z M25.6848814,9.83899505 C24.6929424,9.38589321 23.5077085,9.86493063 23.0456874,10.9295795 C22.5786769,12.0057255 23.034642,13.2570311 24.0389689,13.7157915 C25.0304981,14.1687062 26.2157691,13.689779 26.6776705,12.6254061 C27.1447405,11.5491229 26.6887363,10.2975399 25.6848814,9.83899505 Z"/>
        <use stroke="#005EFF" stroke-width=".879" xlink:href="#a"/>
      </g>
    </g>
  </g>
</svg>
