<svg xmlns="http://www.w3.org/2000/svg" xmlns:xlink="http://www.w3.org/1999/xlink" width="80" height="80" viewBox="0 0 21.167 21.167"><defs><linearGradient id="b" x1="-643.785" x2="-628.511" y1="803.315" y2="819.47" gradientTransform="matrix(.27472 0 0 .27512 185.856 -210.278)" gradientUnits="userSpaceOnUse" xlink:href="#a"/><linearGradient id="a"><stop offset="0" stop-color="#d93a2c"/><stop offset=".383" stop-color="#d93a2c"/><stop offset=".447" stop-color="#232323"/><stop offset="1" stop-color="#d93a2c"/></linearGradient></defs><path fill="url(#b)" d="M6.478 4.299H2.7c0 3.334 1.616 5.643 3.658 7.512l5.52 4.378c1.605 1.404 2.792 2.936 2.792 4.97h3.674c-.008-3.205-1.578-5.38-3.587-7.183L9.229 9.579C7.636 8.131 6.478 6.513 6.478 4.299"/><path fill="#4fb850" d="M2.701 21.158c0-3.081 1.146-5.167 3.403-6.955l5.638-4.467C13.5 8.343 14.67 6.6 14.67 4.304L12.436 4.3 16.52 0l4.112 4.3h-2.28c-.004 3.534-1.717 5.981-3.984 7.82l-5.93 4.811C7.121 18 6.478 19.475 6.478 21.16c0 .022-3.768-.008-3.777 0"/></svg>