<svg id="Layer_1" data-name="Layer 1" xmlns="http://www.w3.org/2000/svg" width="200px" height="45px" viewBox="0 0 1499 350"  >
    <defs>
        <style>.cls-1{fill:#407abe;}</style>
    </defs>
    <path class="cls-1" d="M240.94,139.68c-21,0-42.05,12.85-42.05,45V306.39a6.12,6.12,0,0,1-6,6.1H162.74a6.17,6.17,0,0,1-6.17-6.14V106a6.17,6.17,0,0,1,6.17-6.17H192.9A6.17,6.17,0,0,1,199,106v16.58h1.28c13.78-16.75,32.15-24.88,55.76-24.88a66.73,66.73,0,0,1,35.43,9.75,6.13,6.13,0,0,1,1.82,8.48l-.16.24L273,144.78a6.08,6.08,0,0,1-8.41,1.59,37.07,37.07,0,0,0-23.68-6.69m183.7,154c0-.83-.93-1.38-1.72,0C417,304,399.35,315.11,370.19,315.11a86.8,86.8,0,0,1-48.05-13,59.85,59.85,0,0,1-27-51.7c0-34.46,23.16-62.62,68.93-62.62h60.59V164.67c0-20.68-13.78-27.58-44.6-27.58-18.37,0-30.32,3.18-37.91,10.34a6.89,6.89,0,0,1-9.65,0l-18.16-17.92a6.9,6.9,0,0,1-.08-9.75l.08-.07c15.2-14.65,36.39-22,63.9-22s48.87,4.27,64.31,15C458,124.27,467,141,467,166.73V305.6a6.9,6.9,0,0,1-6.9,6.89H432a6.89,6.89,0,0,1-6.89-6.89Zm-52.32-71.62c-25.74,0-37.91,10.34-37.91,26.16,0,15,12,27.57,41.36,27.57,20.13,0,33.85-3.44,40.74-10.72,5.55-5.58,8.13-14.57,8.13-27V222.19ZM627.58,186c0-29.57-18.44-46.32-42.91-46.32S541.79,156.43,541.79,186V304.84a7.68,7.68,0,0,1-7.68,7.68H507.05a7.68,7.68,0,0,1-7.72-7.65V107.49A7.69,7.69,0,0,1,507,99.8h27.09a7.68,7.68,0,0,1,7.68,7.69v15.06c0,.9.73.72,1.31,0,13.51-17,32.16-24.88,55.73-24.88a71.33,71.33,0,0,1,71.24,71.44q0,1,0,2.07V305a7.69,7.69,0,0,1-7.69,7.69H635.26a7.68,7.68,0,0,1-7.68-7.69Zm69.13,88.58,16.82-20.41a7.21,7.21,0,0,1,10.16-.81l.18.16c17,14.92,36,22.26,62.25,22.26,24.43,0,42.46-9.44,42.46-27.88,0-15.85-12.44-20.16-27.57-22.71s-31.3-.45-46.74-3.45c-31-6.44-51.9-26.16-51.9-58.59,0-43.32,35.19-65.17,79.78-65.17,32.92,0,55.8,7.85,75.21,22a7.07,7.07,0,0,1,1.52,9.75l-15.27,21.75a7.11,7.11,0,0,1-9.76,1.79,90.46,90.46,0,0,0-51.7-15.82c-27.88,0-37.32,11.13-37.32,26.16,0,9.86,6.89,19.3,28.74,20.68A276.5,276.5,0,0,1,801.46,186,217.09,217.09,0,0,1,828,190.27c24.43,6.9,42.91,22.34,42.91,60,0,40.78-38.6,65.21-88.37,65.21A131.6,131.6,0,0,1,697.51,285a7.27,7.27,0,0,1-.9-10.14m235-267.21h.55a27.4,27.4,0,0,1,0,54.8h-.55a27.57,27.57,0,1,1,0-54.8m-12.72,92.58h26a8.31,8.31,0,0,1,8.27,8.27V304.25a8.27,8.27,0,0,1-8.27,8.27h-26a8.22,8.22,0,0,1-8.23-8.23V108.49a8.26,8.26,0,0,1,8.23-8.27m129,212.27H1018a6.24,6.24,0,0,1-6.28-6.2V143.4a6.23,6.23,0,0,0-6.2-6.27h-22a6.27,6.27,0,0,1-6.27-6.27h0V106.49a6.27,6.27,0,0,1,6.27-6.27h21.92a6.23,6.23,0,0,0,6.27-6.21V71.47c0-39.43,24.89-57.45,57.91-57.45h21.16a6.27,6.27,0,0,1,6.27,6.27h0V47.1a6.24,6.24,0,0,1-6.2,6.28h-17.79c-14.16,0-18.88,9-18.88,22.3V93.84a6.23,6.23,0,0,0,6.2,6.27h30.4a6.28,6.28,0,0,1,6.27,6.28h0v24.36a6.28,6.28,0,0,1-6.27,6.28H1060.5a6.22,6.22,0,0,0-6.27,6.2V306.15a6.28,6.28,0,0,1-6.28,6.27h0m113.74-59.52c9,15,25.75,22.75,44.18,22.75a66.58,66.58,0,0,0,42.47-16.27,6.43,6.43,0,0,1,9,.41l18.54,20.68a6.48,6.48,0,0,1-.34,9,99.28,99.28,0,0,1-68.93,25.64c-43.77,0-94.78-21-94.78-108.08,0-82.72,47.15-109.36,88.33-109.36,47.19,0,87.92,35.16,87.92,93.51v23.64a6.37,6.37,0,0,1-6.37,6.37H1161.17a6.44,6.44,0,0,0-6.39,6.5c0,.13,0,.27,0,.4a54,54,0,0,0,6.89,24.71m-.35-65.17h77.48a6.38,6.38,0,0,0,6.4-6.36c0-.18,0-.36,0-.54-3.45-28.54-21.06-43.63-44.81-43.63s-41.8,15.09-45.32,43.63a6.34,6.34,0,0,0,5.77,6.87,6.08,6.08,0,0,0,.61,0m224.44,61.65-38.6,60.28a6.33,6.33,0,0,1-5.38,2.93h-35.12a6.38,6.38,0,0,1-5.31-10l63.8-95a6.44,6.44,0,0,0,0-7.14l-60.83-90.68a6.41,6.41,0,0,1,5.3-10h35.06a6.43,6.43,0,0,1,5.48,3l35.53,57.62a6.4,6.4,0,0,0,10.89,0l35.57-57.62a6.41,6.41,0,0,1,5.44-3h35.09a6.37,6.37,0,0,1,5.27,10l-60.83,90.68a6.44,6.44,0,0,0,0,7.14l63.83,95a6.37,6.37,0,0,1-1.69,8.86,6.3,6.3,0,0,1-3.62,1.1h-35.12a6.35,6.35,0,0,1-5.37-2.93l-38.6-60.28a6.41,6.41,0,0,0-10.79,0M93.91,137.13h19.82a5.76,5.76,0,0,0,5.76-5.76V106a5.75,5.75,0,0,0-5.76-5.75H93.91a5.72,5.72,0,0,1-5.75-5.69V41.21a5.75,5.75,0,0,0-5.76-5.75h-31a5.74,5.74,0,0,0-5.75,5.75V94.49a5.74,5.74,0,0,1-5.73,5.73h-23a5.73,5.73,0,0,0-5.73,5.72v25.43a5.73,5.73,0,0,0,5.69,5.76h23a5.73,5.73,0,0,1,5.73,5.72h0V260c0,33.92,21.88,52.36,51.45,52.36h16.58a5.76,5.76,0,0,0,5.76-5.76V278.27a5.35,5.35,0,1,1-5.45-5.35H103.63c-10.72,0-15.44-9-15.44-20.68V142.85a5.72,5.72,0,0,1,5.72-5.72h0M108.8,278.4a5.35,5.35,0,1,0,5.45-5.34H114a5.35,5.35,0,0,0-5.21,5.34" />
</svg>