<?xml version="1.0" encoding="UTF-8" standalone="no"?>
<!-- Open Collective logo created in .svg format by TidyCustoms.net  -->

<svg
   xmlns:dc="http://purl.org/dc/elements/1.1/"
   xmlns:cc="http://creativecommons.org/ns#"
   xmlns:rdf="http://www.w3.org/1999/02/22-rdf-syntax-ns#"
   xmlns:svg="http://www.w3.org/2000/svg"
   xmlns="http://www.w3.org/2000/svg"
   xmlns:sodipodi="http://sodipodi.sourceforge.net/DTD/sodipodi-0.dtd"
   xmlns:inkscape="http://www.inkscape.org/namespaces/inkscape"
   version="1.1"
   id="Warstwa_1"
   x="0px"
   y="0px"
   viewBox="0 0 596 96"
   style="enable-background:new 0 0 596 96;"
   xml:space="preserve"
   sodipodi:docname="opencollective.svg"
   inkscape:version="0.92.2 (5c3e80d, 2017-08-06)"><metadata
     id="metadata63"><rdf:RDF><cc:Work
         rdf:about=""><dc:format>image/svg+xml</dc:format><dc:type
           rdf:resource="http://purl.org/dc/dcmitype/StillImage" /></cc:Work></rdf:RDF></metadata><defs
     id="defs61" /><sodipodi:namedview
     pagecolor="#ffffff"
     bordercolor="#666666"
     borderopacity="1"
     objecttolerance="10"
     gridtolerance="10"
     guidetolerance="10"
     inkscape:pageopacity="0"
     inkscape:pageshadow="2"
     inkscape:window-width="1298"
     inkscape:window-height="597"
     id="namedview59"
     showgrid="false"
     inkscape:zoom="0.84947727"
     inkscape:cx="223.29785"
     inkscape:cy="10.188155"
     inkscape:window-x="0"
     inkscape:window-y="0"
     inkscape:window-maximized="0"
     inkscape:current-layer="Warstwa_1" /><style
     type="text/css"
     id="style2">
	.st0{fill:#3FAFF0;}
	.st1{fill:#FFFFFF;}
	.st2{fill:#B8D5E6;}
</style><path
     class="st0"
     d="M 571.80639,-15.591777 H 193.1542 c -20.19484,0 -38.38269,-21.6 -38.38269,-48 v 0 c 0,-26.4 18.18785,-48.000003 38.38269,-48.000003 h 378.65219 c 20.19484,0 43.19246,21.600003 43.19246,48.000003 v 0 c 0,26.4 -22.99762,48 -43.19246,48 z"
     id="path4"
     inkscape:connector-curvature="0"
     style="fill:#3faff0;stroke-width:0.8746177"
     inkscape:export-filename="C:\work\gitextensions\GitUI\Resources\Icons\Donate.png"
     inkscape:export-xdpi="96"
     inkscape:export-ydpi="96"
     sodipodi:nodetypes="ssccssccs" /><circle
     class="st1"
     cx="564.35016"
     cy="-63.591778"
     r="44"
     id="circle6"
     inkscape:export-filename="C:\work\gitextensions\GitUI\Resources\Icons\Donate.png"
     inkscape:export-xdpi="96"
     inkscape:export-ydpi="96"
     style="fill:#ffffff" /><g
     id="g12"
     inkscape:export-filename="C:\work\gitextensions\GitUI\Resources\Icons\Donate.png"
     inkscape:export-xdpi="96"
     inkscape:export-ydpi="96"
     transform="translate(16.350158,-111.59178)"><path
       class="st2"
       d="m 565.93,48 c 0,3.52 -1.07,6.88 -2.91,9.79 l 7.32,7.34 c 3.66,-4.9 5.65,-10.86 5.65,-16.99 0,-6.43 -2.14,-12.24 -5.8,-16.98 l -7.18,7.19 c 1.89,2.86 2.9,6.21 2.91,9.64 z"
       id="path8"
       inkscape:connector-curvature="0"
       style="fill:#b8d5e6" /><path
       class="st0"
       d="m 547.92,66.05 c -9.93,-0.02 -17.98,-8.09 -18,-18.05 0.02,-9.97 8.07,-18.04 18,-18.06 3.66,0 7.02,1.08 9.77,2.91 l 7.17,-7.2 C 559.97,21.98 554.03,19.99 547.92,20 532.51,20 520,32.54 520,48 c 0,15.45 12.51,28 27.92,28 6.14,0.02 12.1,-2.03 16.94,-5.82 l -7.32,-7.34 c -2.6,2.14 -5.95,3.21 -9.62,3.21 z"
       id="path10"
       inkscape:connector-curvature="0"
       style="fill:#3faff0" /></g><g
     id="g56"
     transform="matrix(1.2476569,0,0,1.2476569,-13.458105,-113.23266)"
     inkscape:export-filename="C:\work\gitextensions\GitUI\Resources\Icons\Donate.png"
     inkscape:export-xdpi="96"
     inkscape:export-ydpi="96"
     style="stroke:#ffffff;stroke-opacity:1"><g
       id="g3777"
       style="stroke:#ffffff;stroke-opacity:1"><path
         style="fill:#ffffff;stroke:#ffffff;stroke-opacity:1"
         inkscape:connector-curvature="0"
         id="path14"
         d="m 168.3142,30.644526 v -16.43 h 5.67 c 1.28,0 2.25,0.08 2.93,0.24 0.94,0.22 1.75,0.61 2.41,1.18 0.87,0.73 1.52,1.67 1.95,2.81 0.43,1.14 0.64,2.44 0.64,3.91 0,1.25 -0.15,2.35 -0.44,3.32 -0.29,0.96 -0.67,1.76 -1.12,2.39 -0.46,0.63 -0.96,1.13 -1.5,1.49 -0.54,0.36 -1.2,0.64 -1.96,0.82 -0.77,0.19 -1.65,0.28 -2.64,0.28 h -5.94 z m 2.18,-1.94 h 3.51 c 1.08,0 1.93,-0.1 2.55,-0.3 0.62,-0.2 1.11,-0.49 1.47,-0.85 0.52,-0.52 0.92,-1.21 1.21,-2.08 0.29,-0.87 0.43,-1.93 0.43,-3.17 0,-1.72 -0.28,-3.04 -0.85,-3.96 -0.56,-0.92 -1.25,-1.54 -2.06,-1.85 -0.58,-0.22 -1.52,-0.34 -2.82,-0.34 h -3.46 v 12.55 z"
         class="st1" /><path
         style="fill:#ffffff;stroke:#ffffff;stroke-opacity:1"
         inkscape:connector-curvature="0"
         id="path16"
         d="m 188.8442,22.644526 c 0,-2.73 0.73,-4.86 2.2,-6.4 1.46,-1.55 3.35,-2.32 5.67,-2.32 1.52,0 2.89,0.36 4.11,1.09 1.22,0.72 2.15,1.74 2.79,3.03 0.64,1.3 0.96,2.77 0.96,4.41 0,1.67 -0.34,3.16 -1.01,4.47 -0.67,1.31 -1.63,2.31 -2.86,2.99 -1.24,0.67 -2.57,1.01 -4,1.01 -1.55,0 -2.93,-0.37 -4.15,-1.12 -1.22,-0.75 -2.14,-1.77 -2.77,-3.06 -0.63,-1.29 -0.94,-2.66 -0.94,-4.1 z m 2.24,0.03 c 0,1.98 0.53,3.54 1.6,4.68 1.07,1.14 2.4,1.71 4.01,1.71 1.64,0 2.99,-0.57 4.04,-1.73 1.06,-1.15 1.59,-2.78 1.59,-4.9 0,-1.34 -0.23,-2.5 -0.68,-3.5 -0.45,-1 -1.11,-1.77 -1.99,-2.32 -0.87,-0.55 -1.85,-0.82 -2.93,-0.82 -1.54,0 -2.87,0.53 -3.98,1.59 -1.11,1.05 -1.66,2.82 -1.66,5.29 z"
         class="st1" /><path
         style="fill:#ffffff;stroke:#ffffff;stroke-opacity:1"
         inkscape:connector-curvature="0"
         id="path18"
         d="m 211.9442,30.644526 v -16.43 h 2.23 l 8.64,12.9 v -12.9 h 2.09 v 16.43 h -2.23 l -8.64,-12.91 v 12.91 z"
         class="st1" /><path
         style="fill:#ffffff;stroke:#ffffff;stroke-opacity:1"
         inkscape:connector-curvature="0"
         id="path20"
         d="m 231.3442,30.644526 6.32,-16.43 h 2.34 l 6.73,16.43 h -2.48 l -1.92,-4.98 h -6.88 l -1.81,4.98 z m 4.75,-6.75 h 5.58 l -1.72,-4.55 c -0.52,-1.38 -0.91,-2.52 -1.17,-3.41 -0.21,1.05 -0.5,2.1 -0.89,3.14 z"
         class="st1" /><path
         style="fill:#ffffff;stroke:#ffffff;stroke-opacity:1"
         inkscape:connector-curvature="0"
         id="path22"
         d="m 255.5542,30.644526 v -14.49 h -5.42 v -1.94 h 13.04 v 1.94 h -5.44 v 14.49 z"
         class="st1" /><path
         style="fill:#ffffff;stroke:#ffffff;stroke-opacity:1"
         inkscape:connector-curvature="0"
         id="path24"
         d="m 270.0442,30.644526 v -16.43 h 11.89 v 1.94 h -9.72 v 5.03 h 9.1 v 1.93 h -9.1 v 5.59 h 10.1 v 1.94 z"
         class="st1" /><path
         style="fill:#ffffff;stroke:#ffffff;stroke-opacity:1"
         inkscape:connector-curvature="0"
         id="path26"
         d="m 304.6642,30.644526 v -14.49 h -5.42 v -1.94 h 13.04 v 1.94 h -5.44 v 14.49 z"
         class="st1" /><path
         style="fill:#ffffff;stroke:#ffffff;stroke-opacity:1"
         inkscape:connector-curvature="0"
         id="path28"
         d="m 318.0342,22.644526 c 0,-2.73 0.73,-4.86 2.2,-6.4 1.47,-1.54 3.36,-2.31 5.68,-2.31 1.52,0 2.89,0.36 4.11,1.09 1.22,0.72 2.15,1.74 2.79,3.03 0.64,1.3 0.96,2.77 0.96,4.41 0,1.67 -0.34,3.16 -1.01,4.47 -0.67,1.31 -1.63,2.31 -2.86,2.99 -1.23,0.68 -2.57,1.01 -3.99,1.01 -1.55,0 -2.93,-0.37 -4.15,-1.12 -1.22,-0.75 -2.14,-1.77 -2.77,-3.06 -0.65,-1.3 -0.96,-2.67 -0.96,-4.11 z m 2.24,0.03 c 0,1.98 0.53,3.54 1.6,4.68 1.07,1.14 2.4,1.71 4.01,1.71 1.64,0 2.99,-0.57 4.04,-1.73 1.06,-1.15 1.59,-2.78 1.59,-4.9 0,-1.34 -0.23,-2.5 -0.68,-3.5 -0.45,-1 -1.11,-1.77 -1.99,-2.32 -0.87,-0.55 -1.85,-0.82 -2.93,-0.82 -1.54,0 -2.87,0.53 -3.98,1.59 -1.1,1.05 -1.66,2.82 -1.66,5.29 z"
         class="st1" /><path
         style="fill:#ffffff;stroke:#ffffff;stroke-opacity:1"
         inkscape:connector-curvature="0"
         id="path30"
         d="m 351.4842,22.644526 c 0,-2.73 0.73,-4.86 2.2,-6.4 1.47,-1.54 3.36,-2.31 5.68,-2.31 1.52,0 2.89,0.36 4.11,1.09 1.22,0.73 2.15,1.74 2.79,3.03 0.64,1.3 0.96,2.77 0.96,4.41 0,1.67 -0.34,3.16 -1.01,4.47 -0.67,1.31 -1.63,2.31 -2.86,2.99 -1.23,0.68 -2.57,1.01 -3.99,1.01 -1.55,0 -2.93,-0.37 -4.15,-1.12 -1.22,-0.75 -2.14,-1.77 -2.77,-3.06 -0.65,-1.3 -0.96,-2.67 -0.96,-4.11 z m 2.24,0.03 c 0,1.98 0.53,3.54 1.6,4.68 1.07,1.14 2.4,1.71 4.01,1.71 1.64,0 2.99,-0.57 4.04,-1.73 1.06,-1.15 1.59,-2.78 1.59,-4.9 0,-1.34 -0.23,-2.5 -0.68,-3.5 -0.45,-1 -1.11,-1.77 -1.99,-2.32 -0.87,-0.55 -1.85,-0.82 -2.93,-0.82 -1.54,0 -2.87,0.53 -3.98,1.59 -1.11,1.05 -1.66,2.82 -1.66,5.29 z"
         class="st1" /><path
         style="fill:#ffffff;stroke:#ffffff;stroke-opacity:1"
         inkscape:connector-curvature="0"
         id="path32"
         d="m 385.4042,14.214526 h 2.18 v 9.49 c 0,1.65 -0.19,2.96 -0.56,3.93 -0.37,0.97 -1.05,1.76 -2.03,2.37 -0.98,0.61 -2.26,0.91 -3.84,0.91 -1.54,0 -2.8,-0.27 -3.78,-0.8 -0.98,-0.53 -1.68,-1.3 -2.1,-2.3 -0.42,-1.01 -0.63,-2.38 -0.63,-4.12 v -9.49 h 2.18 v 9.48 c 0,1.43 0.13,2.48 0.4,3.15 0.27,0.68 0.72,1.2 1.37,1.56 0.65,0.37 1.44,0.55 2.37,0.55 1.6,0 2.74,-0.36 3.42,-1.09 0.68,-0.72 1.02,-2.12 1.02,-4.18 z"
         class="st1" /><path
         style="fill:#ffffff;stroke:#ffffff;stroke-opacity:1"
         inkscape:connector-curvature="0"
         id="path34"
         d="m 395.8242,30.644526 v -16.43 h 7.29 c 1.47,0 2.58,0.15 3.34,0.44 0.76,0.3 1.37,0.82 1.83,1.56 0.46,0.75 0.68,1.57 0.68,2.48 0,1.17 -0.38,2.15 -1.13,2.95 -0.76,0.8 -1.92,1.31 -3.5,1.52 0.58,0.28 1.01,0.55 1.31,0.82 0.64,0.58 1.24,1.31 1.81,2.18 l 2.86,4.47 h -2.74 l -2.18,-3.42 c -0.64,-0.99 -1.16,-1.74 -1.57,-2.26 -0.41,-0.52 -0.78,-0.89 -1.1,-1.1 -0.33,-0.21 -0.66,-0.35 -0.99,-0.44 -0.25,-0.05 -0.65,-0.08 -1.21,-0.08 h -2.52 v 7.3 h -2.18 z m 2.18,-9.18 h 4.68 c 0.99,0 1.77,-0.1 2.33,-0.31 0.56,-0.21 0.99,-0.53 1.28,-0.99 0.29,-0.45 0.44,-0.94 0.44,-1.47 0,-0.78 -0.28,-1.42 -0.85,-1.92 -0.56,-0.5 -1.46,-0.75 -2.68,-0.75 h -5.21 v 5.44 z"
         class="st1" /></g><g
       id="g3764"
       style="stroke:#ffffff;stroke-opacity:1"><path
         style="fill:#ffffff;stroke:#ffffff;stroke-opacity:1"
         inkscape:connector-curvature="0"
         id="path36"
         d="m 221.91322,60.200362 2.18,0.55 c -0.46,1.79 -1.28,3.15 -2.46,4.08 -1.19,0.94 -2.63,1.41 -4.35,1.41 -1.77,0 -3.21,-0.36 -4.32,-1.08 -1.11,-0.72 -1.96,-1.77 -2.54,-3.13 -0.58,-1.37 -0.87,-2.83 -0.87,-4.4 0,-1.71 0.33,-3.2 0.98,-4.48 0.65,-1.27 1.59,-2.24 2.79,-2.9 1.21,-0.66 2.54,-0.99 3.99,-0.99 1.65,0 3.03,0.42 4.15,1.26 1.12,0.84 1.9,2.01 2.35,3.53 l -2.14,0.5 c -0.38,-1.2 -0.93,-2.07 -1.66,-2.61 -0.73,-0.54 -1.64,-0.82 -2.74,-0.82 -1.26,0 -2.32,0.3 -3.17,0.91 -0.85,0.61 -1.44,1.42 -1.79,2.44 -0.34,1.02 -0.52,2.07 -0.52,3.15 0,1.4 0.2,2.62 0.61,3.66 0.41,1.04 1.04,1.82 1.9,2.34 0.86,0.52 1.79,0.77 2.79,0.77 1.22,0 2.25,-0.35 3.1,-1.05 0.85,-0.72 1.42,-1.76 1.72,-3.14 z"
         class="st1" /><path
         style="fill:#ffffff;stroke:#ffffff;stroke-opacity:1"
         inkscape:connector-curvature="0"
         id="path38"
         d="m 230.70322,57.960362 c 0,-2.73 0.73,-4.86 2.2,-6.4 1.47,-1.54 3.36,-2.31 5.68,-2.31 1.52,0 2.89,0.36 4.11,1.09 1.22,0.72 2.15,1.74 2.79,3.03 0.64,1.3 0.96,2.77 0.96,4.41 0,1.67 -0.34,3.16 -1.01,4.47 -0.67,1.31 -1.63,2.31 -2.86,2.99 -1.23,0.68 -2.57,1.01 -3.99,1.01 -1.55,0 -2.93,-0.37 -4.15,-1.12 -1.22,-0.75 -2.14,-1.77 -2.77,-3.06 -0.64,-1.3 -0.96,-2.67 -0.96,-4.11 z m 2.25,0.03 c 0,1.98 0.53,3.54 1.6,4.68 1.07,1.14 2.4,1.71 4.01,1.71 1.64,0 2.99,-0.57 4.04,-1.73 1.06,-1.15 1.59,-2.78 1.59,-4.9 0,-1.34 -0.23,-2.5 -0.68,-3.5 -0.45,-1 -1.12,-1.77 -1.99,-2.32 -0.87,-0.55 -1.85,-0.82 -2.93,-0.82 -1.54,0 -2.87,0.53 -3.98,1.59 -1.11,1.05 -1.66,2.82 -1.66,5.29 z"
         class="st1" /><path
         style="fill:#ffffff;stroke:#ffffff;stroke-opacity:1"
         inkscape:connector-curvature="0"
         id="path40"
         d="m 253.74322,65.960362 v -16.43 h 2.18 v 14.49 h 8.1 v 1.94 z"
         class="st1" /><path
         style="fill:#ffffff;stroke:#ffffff;stroke-opacity:1"
         inkscape:connector-curvature="0"
         id="path42"
         d="m 271.11322,65.960362 v -16.43 h 2.18 v 14.49 h 8.1 v 1.94 z"
         class="st1" /><path
         style="fill:#ffffff;stroke:#ffffff;stroke-opacity:1"
         inkscape:connector-curvature="0"
         id="path44"
         d="m 288.62322,65.960362 v -16.43 h 11.89 v 1.94 h -9.72 v 5.03 h 9.1 v 1.93 h -9.1 v 5.59 h 10.1 v 1.94 z"
         class="st1" /><path
         style="fill:#ffffff;stroke:#ffffff;stroke-opacity:1"
         inkscape:connector-curvature="0"
         id="path46"
         d="m 320.23322,60.200362 2.18,0.55 c -0.46,1.79 -1.28,3.15 -2.46,4.08 -1.19,0.94 -2.63,1.41 -4.35,1.41 -1.77,0 -3.21,-0.36 -4.32,-1.08 -1.11,-0.72 -1.96,-1.77 -2.54,-3.13 -0.58,-1.37 -0.87,-2.83 -0.87,-4.4 0,-1.71 0.33,-3.2 0.98,-4.48 0.65,-1.27 1.59,-2.24 2.79,-2.9 1.21,-0.66 2.54,-0.99 3.99,-0.99 1.65,0 3.03,0.42 4.15,1.26 1.12,0.84 1.9,2.01 2.35,3.53 l -2.14,0.5 c -0.38,-1.2 -0.93,-2.07 -1.66,-2.61 -0.73,-0.54 -1.64,-0.82 -2.74,-0.82 -1.26,0 -2.32,0.3 -3.17,0.91 -0.85,0.61 -1.44,1.42 -1.79,2.44 -0.34,1.02 -0.52,2.07 -0.52,3.15 0,1.4 0.2,2.62 0.61,3.66 0.41,1.04 1.04,1.82 1.9,2.34 0.86,0.52 1.79,0.77 2.79,0.77 1.22,0 2.25,-0.35 3.1,-1.05 0.85,-0.72 1.42,-1.76 1.72,-3.14 z"
         class="st1" /><path
         style="fill:#ffffff;stroke:#ffffff;stroke-opacity:1"
         inkscape:connector-curvature="0"
         id="path48"
         d="m 333.87322,65.960362 v -14.49 h -5.42 v -1.94 h 13.04 v 1.94 h -5.44 v 14.49 z"
         class="st1" /><path
         style="fill:#ffffff;stroke:#ffffff;stroke-opacity:1"
         inkscape:connector-curvature="0"
         id="path50"
         d="m 348.68322,65.960362 v -16.43 h 2.18 v 16.43 z"
         class="st1" /><path
         style="fill:#ffffff;stroke:#ffffff;stroke-opacity:1"
         inkscape:connector-curvature="0"
         id="path52"
         d="m 363.99322,65.960362 -6.37,-16.43 h 2.35 l 4.27,11.93 c 0.34,0.96 0.63,1.85 0.86,2.69 0.25,-0.9 0.55,-1.79 0.89,-2.69 l 4.44,-11.93 h 2.22 l -6.44,16.43 z"
         class="st1" /><path
         style="fill:#ffffff;stroke:#ffffff;stroke-opacity:1"
         inkscape:connector-curvature="0"
         id="path54"
         d="m 379.26322,65.960362 v -16.43 h 11.89 v 1.94 h -9.72 v 5.03 h 9.1 v 1.93 h -9.1 v 5.59 h 10.1 v 1.94 z"
         class="st1" /></g></g></svg>