<?xml version="1.0" encoding="UTF-8" standalone="no"?>
<svg
   xmlns:dc="http://purl.org/dc/elements/1.1/"
   xmlns:cc="http://creativecommons.org/ns#"
   xmlns:rdf="http://www.w3.org/1999/02/22-rdf-syntax-ns#"
   xmlns:svg="http://www.w3.org/2000/svg"
   xmlns="http://www.w3.org/2000/svg"
   xmlns:sodipodi="http://sodipodi.sourceforge.net/DTD/sodipodi-0.dtd"
   xmlns:inkscape="http://www.inkscape.org/namespaces/inkscape"
   class="octicon octicon-git-branch"
   viewBox="0 0 16 16"
   version="1.1"
   width="16"
   height="16"
   aria-hidden="true"
   id="svg601"
   sodipodi:docname="branch-smaller.svg"
   inkscape:version="0.92.3 (2405546, 2018-03-11)"
   inkscape:export-filename="C:\Users\Drew\dev\tools\gitextensions\GitUI\Resources\Icons\Branch.png"
   inkscape:export-xdpi="96"
   inkscape:export-ydpi="96">
  <metadata
     id="metadata607">
    <rdf:RDF>
      <cc:Work
         rdf:about="">
        <dc:format>image/svg+xml</dc:format>
        <dc:type
           rdf:resource="http://purl.org/dc/dcmitype/StillImage" />
        <dc:title></dc:title>
      </cc:Work>
    </rdf:RDF>
  </metadata>
  <defs
     id="defs605" />
  <sodipodi:namedview
     pagecolor="#ffffff"
     bordercolor="#666666"
     borderopacity="1"
     objecttolerance="10"
     gridtolerance="10"
     guidetolerance="10"
     inkscape:pageopacity="0"
     inkscape:pageshadow="2"
     inkscape:window-width="3840"
     inkscape:window-height="2035"
     id="namedview603"
     showgrid="true"
     inkscape:showpageshadow="false"
     inkscape:pagecheckerboard="false"
     inkscape:zoom="35.368899"
     inkscape:cx="8"
     inkscape:cy="-4.0250001"
     inkscape:window-x="-13"
     inkscape:window-y="-13"
     inkscape:window-maximized="1"
     inkscape:current-layer="svg601"
     inkscape:snap-global="true">
    <inkscape:grid
       type="xygrid"
       id="grid609" />
  </sodipodi:namedview>
  <path
     d="m -23,26 c 0,-1.11 -0.89,-2 -2,-2 a 1.993,1.993 0 0 0 -1,3.72 v 0.3 c -0.02,0.52 -0.23,0.98 -0.63,1.38 -0.4,0.4 -0.86,0.61 -1.38,0.63 -0.83,0.02 -1.48,0.16 -2,0.45 V 25.719999 A 1.993,1.993 0 0 0 -31.01,22 c -1.11,0 -1.99,0.89 -1.99,2 a 2,2 0 0 0 1,1.719999 V 32.28 c -0.59,0.35 -1,0.99 -1,1.72 0,1.11 0.89,2 2,2 1.11,0 2,-0.89 2,-2 0,-0.53 -0.2,-1 -0.53,-1.36 0.09,-0.06 0.48,-0.41 0.59,-0.47 0.25,-0.11 0.56,-0.17 0.94,-0.17 1.05,-0.05 1.95,-0.45 2.75,-1.25 0.8,-0.8 1.2,-1.98 1.25,-3.02 h -0.02 C -23.41,27.37 -23,26.729999 -23,26 Z m -8,-3.200001 c 0.66,0 1.2,0.55 1.2,1.200001 0,0.649999 -0.55,1.199999 -1.2,1.199999 -0.65,0 -1.2,-0.55 -1.2,-1.199999 0,-0.650001 0.55,-1.2 1.2,-1.200001 z M -31,35.21 c -0.66,0 -1.2,-0.55 -1.2,-1.2 0,-0.65 0.55,-1.2 1.2,-1.2 0.65,0 1.2,0.55 1.2,1.2 0,0.65 -0.55,1.2 -1.2,1.2 z m 6,-8 c -0.66,0 -1.2,-0.55 -1.2,-1.200001 0,-0.65 0.55,-1.2 1.2,-1.2 0.65,0 1.2,0.55 1.2,1.2 C -23.8,26.66 -24.35,27.21 -25,27.21 Z"
     id="path599"
     inkscape:connector-curvature="0"
     style="fill-rule:evenodd" />
  <rect
     style="color:#000000;clip-rule:nonzero;display:inline;overflow:visible;visibility:visible;opacity:1;isolation:auto;mix-blend-mode:normal;color-interpolation:sRGB;color-interpolation-filters:linearRGB;solid-color:#000000;solid-opacity:1;fill:none;fill-opacity:1;fill-rule:evenodd;stroke:#6699ff;stroke-width:0.1;stroke-linecap:square;stroke-linejoin:miter;stroke-miterlimit:4;stroke-dasharray:none;stroke-dashoffset:0;stroke-opacity:1;paint-order:normal;color-rendering:auto;image-rendering:auto;shape-rendering:auto;text-rendering:auto;enable-background:accumulate"
     id="rect672"
     width="16"
     height="16"
     x="-36"
     y="21"
     rx="3.2557e-005"
     ry="4.7280799e-005" />
  <rect
     ry="4.7280799e-005"
     rx="3.2557e-005"
     y="21"
     x="-18"
     height="16"
     width="16"
     id="rect1484"
     style="color:#000000;clip-rule:nonzero;display:inline;overflow:visible;visibility:visible;opacity:1;isolation:auto;mix-blend-mode:normal;color-interpolation:sRGB;color-interpolation-filters:linearRGB;solid-color:#000000;solid-opacity:1;fill:none;fill-opacity:1;fill-rule:evenodd;stroke:#6699ff;stroke-width:0.1;stroke-linecap:square;stroke-linejoin:miter;stroke-miterlimit:4;stroke-dasharray:none;stroke-dashoffset:0;stroke-opacity:1;paint-order:normal;color-rendering:auto;image-rendering:auto;shape-rendering:auto;text-rendering:auto;enable-background:accumulate" />
  <rect
     ry="5.3900112e-005"
     rx="3.2557e-005"
     y="26.719999"
     x="-12"
     height="4.5599999"
     width="1"
     id="rect1486"
     style="color:#000000;clip-rule:nonzero;display:inline;overflow:visible;visibility:visible;opacity:1;isolation:auto;mix-blend-mode:normal;color-interpolation:sRGB;color-interpolation-filters:linearRGB;solid-color:#000000;solid-opacity:1;fill:#000000;fill-opacity:1;fill-rule:evenodd;stroke:none;stroke-width:3.77952766;stroke-linecap:square;stroke-linejoin:miter;stroke-miterlimit:4;stroke-dasharray:none;stroke-dashoffset:0;stroke-opacity:1;paint-order:normal;color-rendering:auto;image-rendering:auto;shape-rendering:auto;text-rendering:auto;enable-background:accumulate" />
  <path
     id="path1488"
     d="m -11.5,24 a 1.5,1.5 0 0 0 -1.5,1.5 1.5,1.5 0 0 0 1.5,1.5 1.5,1.5 0 0 0 1.5,-1.5 1.5,1.5 0 0 0 -1.5,-1.5 z m 0,0.84961 A 0.64999998,0.65000004 0 0 1 -10.849609,25.5 0.64999998,0.65000004 0 0 1 -11.5,26.150391 0.64999998,0.65000004 0 0 1 -12.150391,25.5 0.64999998,0.65000004 0 0 1 -11.5,24.84961 Z"
     style="color:#000000;clip-rule:nonzero;display:inline;overflow:visible;visibility:visible;opacity:1;isolation:auto;mix-blend-mode:normal;color-interpolation:sRGB;color-interpolation-filters:linearRGB;solid-color:#000000;solid-opacity:1;fill:#000000;fill-opacity:1;fill-rule:evenodd;stroke:none;stroke-width:3.77952766;stroke-linecap:square;stroke-linejoin:miter;stroke-miterlimit:4;stroke-dasharray:none;stroke-dashoffset:0;stroke-opacity:1;paint-order:normal;color-rendering:auto;image-rendering:auto;shape-rendering:auto;text-rendering:auto;enable-background:accumulate"
     inkscape:connector-curvature="0" />
  <path
     id="path1490"
     d="m -11.5,31 a 1.5,1.5 0 0 0 -1.5,1.5 1.5,1.5 0 0 0 1.5,1.5 1.5,1.5 0 0 0 1.5,-1.5 1.5,1.5 0 0 0 -1.5,-1.5 z m 0,0.849609 A 0.64999998,0.64999998 0 0 1 -10.849609,32.5 0.64999998,0.64999998 0 0 1 -11.5,33.150391 0.64999998,0.64999998 0 0 1 -12.150391,32.5 0.64999998,0.64999998 0 0 1 -11.5,31.849609 Z"
     style="color:#000000;clip-rule:nonzero;display:inline;overflow:visible;visibility:visible;opacity:1;isolation:auto;mix-blend-mode:normal;color-interpolation:sRGB;color-interpolation-filters:linearRGB;solid-color:#000000;solid-opacity:1;fill:#000000;fill-opacity:1;fill-rule:evenodd;stroke:none;stroke-width:3.77952766;stroke-linecap:square;stroke-linejoin:miter;stroke-miterlimit:4;stroke-dasharray:none;stroke-dashoffset:0;stroke-opacity:1;paint-order:normal;color-rendering:auto;image-rendering:auto;shape-rendering:auto;text-rendering:auto;enable-background:accumulate"
     inkscape:connector-curvature="0" />
  <path
     id="path1492"
     d="M -7.5,26 A 1.5,1.5 0 0 0 -9,27.5 1.5,1.5 0 0 0 -7.5,29 1.5,1.5 0 0 0 -6,27.5 1.5,1.5 0 0 0 -7.5,26 Z m 0,0.84961 A 0.64999998,0.64999998 0 0 1 -6.849609,27.5 0.64999998,0.64999998 0 0 1 -7.5,28.150391 0.64999998,0.64999998 0 0 1 -8.150391,27.5 0.64999998,0.64999998 0 0 1 -7.5,26.84961 Z"
     style="color:#000000;clip-rule:nonzero;display:inline;overflow:visible;visibility:visible;opacity:1;isolation:auto;mix-blend-mode:normal;color-interpolation:sRGB;color-interpolation-filters:linearRGB;solid-color:#000000;solid-opacity:1;fill:#000000;fill-opacity:1;fill-rule:evenodd;stroke:none;stroke-width:3.77952766;stroke-linecap:square;stroke-linejoin:miter;stroke-miterlimit:4;stroke-dasharray:none;stroke-dashoffset:0;stroke-opacity:1;paint-order:normal;color-rendering:auto;image-rendering:auto;shape-rendering:auto;text-rendering:auto;enable-background:accumulate"
     inkscape:connector-curvature="0" />
  <path
     style="fill-rule:evenodd;stroke-width:1"
     inkscape:connector-curvature="0"
     id="path1494"
     d="m -8,28.737718 c -0.01075,0.279386 -0.214932,0.526107 -0.453105,0.714914 -0.170689,0.13531 -0.886606,0.261406 -1.165992,0.272152 -0.445943,0.01075 -1.101517,0.338038 -1.380903,0.493849 l -1,0.869814 1.159204,0.149197 c 0.04836,-0.03224 0.315679,-0.26873 0.412465,-0.314434 0.09679,-0.0457 0.731137,-0.352088 1.265685,-0.383212 0.534548,-0.03112 1.167101,-0.197553 1.596925,-0.627377 C -7.135902,29.482796 -7.008057,29.016854 -7,28.737468 Z"
     sodipodi:nodetypes="cscccczzscc" />
  <rect
     style="color:#000000;clip-rule:nonzero;display:inline;overflow:visible;visibility:visible;opacity:1;isolation:auto;mix-blend-mode:normal;color-interpolation:sRGB;color-interpolation-filters:linearRGB;solid-color:#000000;solid-opacity:1;fill:none;fill-opacity:1;fill-rule:evenodd;stroke:#6699ff;stroke-width:0.1;stroke-linecap:square;stroke-linejoin:miter;stroke-miterlimit:4;stroke-dasharray:none;stroke-dashoffset:0;stroke-opacity:1;paint-order:normal;color-rendering:auto;image-rendering:auto;shape-rendering:auto;text-rendering:auto;enable-background:accumulate"
     id="rect1496"
     width="16"
     height="16"
     x="0"
     y="21"
     rx="3.2557e-005"
     ry="4.7280799e-005" />
  <rect
     ry="5.3900112e-005"
     rx="3.2557e-005"
     y="26.719999"
     x="6"
     height="4.5599999"
     width="1"
     id="rect1498"
     style="color:#000000;clip-rule:nonzero;display:inline;overflow:visible;visibility:visible;opacity:1;isolation:auto;mix-blend-mode:normal;color-interpolation:sRGB;color-interpolation-filters:linearRGB;solid-color:#000000;solid-opacity:1;fill:#000000;fill-opacity:1;fill-rule:evenodd;stroke:none;stroke-width:3.77952766;stroke-linecap:square;stroke-linejoin:miter;stroke-miterlimit:4;stroke-dasharray:none;stroke-dashoffset:0;stroke-opacity:1;paint-order:normal;color-rendering:auto;image-rendering:auto;shape-rendering:auto;text-rendering:auto;enable-background:accumulate" />
  <path
     id="path1500"
     d="M 6.5,24 A 1.5,1.5 0 0 0 5,25.5 1.5,1.5 0 0 0 6.5,27 1.5,1.5 0 0 0 8,25.5 1.5,1.5 0 0 0 6.5,24 Z m 0,0.849609 A 0.64999998,0.65000004 0 0 1 7.1503906,25.5 0.64999998,0.65000004 0 0 1 6.5,26.150391 0.64999998,0.65000004 0 0 1 5.8496094,25.5 0.64999998,0.65000004 0 0 1 6.5,24.849609 Z"
     style="color:#000000;clip-rule:nonzero;display:inline;overflow:visible;visibility:visible;opacity:1;isolation:auto;mix-blend-mode:normal;color-interpolation:sRGB;color-interpolation-filters:linearRGB;solid-color:#000000;solid-opacity:1;fill:#000000;fill-opacity:1;fill-rule:evenodd;stroke:none;stroke-width:3.77952766;stroke-linecap:square;stroke-linejoin:miter;stroke-miterlimit:4;stroke-dasharray:none;stroke-dashoffset:0;stroke-opacity:1;paint-order:normal;color-rendering:auto;image-rendering:auto;shape-rendering:auto;text-rendering:auto;enable-background:accumulate"
     inkscape:connector-curvature="0" />
  <path
     id="path1502"
     d="M 6.5,31 A 1.5,1.5 0 0 0 5,32.5 1.5,1.5 0 0 0 6.5,34 1.5,1.5 0 0 0 8,32.5 1.5,1.5 0 0 0 6.5,31 Z m 0,0.849609 A 0.64999998,0.64999998 0 0 1 7.1503906,32.5 0.64999998,0.64999998 0 0 1 6.5,33.150391 0.64999998,0.64999998 0 0 1 5.8496094,32.5 0.64999998,0.64999998 0 0 1 6.5,31.849609 Z"
     style="color:#000000;clip-rule:nonzero;display:inline;overflow:visible;visibility:visible;opacity:1;isolation:auto;mix-blend-mode:normal;color-interpolation:sRGB;color-interpolation-filters:linearRGB;solid-color:#000000;solid-opacity:1;fill:#000000;fill-opacity:1;fill-rule:evenodd;stroke:none;stroke-width:3.77952766;stroke-linecap:square;stroke-linejoin:miter;stroke-miterlimit:4;stroke-dasharray:none;stroke-dashoffset:0;stroke-opacity:1;paint-order:normal;color-rendering:auto;image-rendering:auto;shape-rendering:auto;text-rendering:auto;enable-background:accumulate"
     inkscape:connector-curvature="0" />
  <path
     inkscape:connector-curvature="0"
     id="path1504"
     d="M 10.5,27 A 1.5,1.5 0 0 0 9,28.5 1.5,1.5 0 0 0 10.5,30 1.5,1.5 0 0 0 12,28.5 1.5,1.5 0 0 0 10.5,27 Z m 0,0.849609 A 0.64999998,0.64999998 0 0 1 11.150391,28.5 0.64999998,0.64999998 0 0 1 10.5,29.150391 0.64999998,0.64999998 0 0 1 9.8496094,28.5 0.64999998,0.64999998 0 0 1 10.5,27.849609 Z"
     style="color:#000000;clip-rule:nonzero;display:inline;overflow:visible;visibility:visible;opacity:1;isolation:auto;mix-blend-mode:normal;color-interpolation:sRGB;color-interpolation-filters:linearRGB;solid-color:#000000;solid-opacity:1;fill:#000000;fill-opacity:1;fill-rule:evenodd;stroke:none;stroke-width:3.77952766;stroke-linecap:square;stroke-linejoin:miter;stroke-miterlimit:4;stroke-dasharray:none;stroke-dashoffset:0;stroke-opacity:1;paint-order:normal;color-rendering:auto;image-rendering:auto;shape-rendering:auto;text-rendering:auto;enable-background:accumulate" />
  <path
     style="fill-rule:evenodd;stroke-width:1"
     inkscape:connector-curvature="0"
     id="path1506"
     d="m 9.8046875,29.674595 c -0.120121,0.173209 -0.1639817,0.195418 -0.2577925,0.238949 -0.093811,0.04353 -0.3487292,0.08574 -0.5514144,0.08636 -0.3316105,0.001 -0.5761988,0.02342 -0.9941576,0.03673 C 7.7037861,30.046121 7.3162927,30.229704 7,30.434925 l -1,0.68519 0.5693602,0.676123 c 0.048355,-0.02539 0.4722883,-0.246897 0.662465,-0.3766 0.1805219,-0.123118 0.5282147,-0.356967 0.7707101,-0.372807 0.5196783,-0.03394 0.9910688,-0.05074 0.9910688,-0.05074 0.53441,-0.02736 1.0967889,-0.112074 1.5266129,-0.450665 C 10.950036,30.206837 10.991943,29.984325 11,29.764241 Z"
     sodipodi:nodetypes="czsscccsssscc" />
  <rect
     ry="4.7280799e-005"
     rx="3.2557e-005"
     y="21"
     x="18"
     height="16"
     width="16"
     id="rect1508"
     style="color:#000000;clip-rule:nonzero;display:inline;overflow:visible;visibility:visible;opacity:1;isolation:auto;mix-blend-mode:normal;color-interpolation:sRGB;color-interpolation-filters:linearRGB;solid-color:#000000;solid-opacity:1;fill:none;fill-opacity:1;fill-rule:evenodd;stroke:#6699ff;stroke-width:0.1;stroke-linecap:square;stroke-linejoin:miter;stroke-miterlimit:4;stroke-dasharray:none;stroke-dashoffset:0;stroke-opacity:1;paint-order:normal;color-rendering:auto;image-rendering:auto;shape-rendering:auto;text-rendering:auto;enable-background:accumulate" />
  <rect
     ry="4.2400083e-005"
     rx="3.2557e-005"
     y="27.692913"
     x="24"
     height="3.5870867"
     width="1"
     id="rect1510"
     style="color:#000000;clip-rule:nonzero;display:inline;overflow:visible;visibility:visible;opacity:1;isolation:auto;mix-blend-mode:normal;color-interpolation:sRGB;color-interpolation-filters:linearRGB;solid-color:#000000;solid-opacity:1;fill:#000000;fill-opacity:1;fill-rule:evenodd;stroke:none;stroke-width:3.77952766;stroke-linecap:square;stroke-linejoin:miter;stroke-miterlimit:4;stroke-dasharray:none;stroke-dashoffset:0;stroke-opacity:1;paint-order:normal;color-rendering:auto;image-rendering:auto;shape-rendering:auto;text-rendering:auto;enable-background:accumulate" />
  <path
     inkscape:connector-curvature="0"
     id="path1512"
     d="M 24.5,25 A 1.5,1.5 0 0 0 23,26.5 1.5,1.5 0 0 0 24.5,28 1.5,1.5 0 0 0 26,26.5 1.5,1.5 0 0 0 24.5,25 Z m 0,0.849609 A 0.64999998,0.65000004 0 0 1 25.150391,26.5 0.64999998,0.65000004 0 0 1 24.5,27.150391 0.64999998,0.65000004 0 0 1 23.849609,26.5 0.64999998,0.65000004 0 0 1 24.5,25.849609 Z"
     style="color:#000000;clip-rule:nonzero;display:inline;overflow:visible;visibility:visible;opacity:1;isolation:auto;mix-blend-mode:normal;color-interpolation:sRGB;color-interpolation-filters:linearRGB;solid-color:#000000;solid-opacity:1;fill:#000000;fill-opacity:1;fill-rule:evenodd;stroke:none;stroke-width:3.77952766;stroke-linecap:square;stroke-linejoin:miter;stroke-miterlimit:4;stroke-dasharray:none;stroke-dashoffset:0;stroke-opacity:1;paint-order:normal;color-rendering:auto;image-rendering:auto;shape-rendering:auto;text-rendering:auto;enable-background:accumulate" />
  <path
     id="path1514"
     d="M 24.5,31 A 1.5,1.5 0 0 0 23,32.5 1.5,1.5 0 0 0 24.5,34 1.5,1.5 0 0 0 26,32.5 1.5,1.5 0 0 0 24.5,31 Z m 0,0.849609 A 0.64999998,0.64999998 0 0 1 25.150391,32.5 0.64999998,0.64999998 0 0 1 24.5,33.150391 0.64999998,0.64999998 0 0 1 23.849609,32.5 0.64999998,0.64999998 0 0 1 24.5,31.849609 Z"
     style="color:#000000;clip-rule:nonzero;display:inline;overflow:visible;visibility:visible;opacity:1;isolation:auto;mix-blend-mode:normal;color-interpolation:sRGB;color-interpolation-filters:linearRGB;solid-color:#000000;solid-opacity:1;fill:#000000;fill-opacity:1;fill-rule:evenodd;stroke:none;stroke-width:3.77952766;stroke-linecap:square;stroke-linejoin:miter;stroke-miterlimit:4;stroke-dasharray:none;stroke-dashoffset:0;stroke-opacity:1;paint-order:normal;color-rendering:auto;image-rendering:auto;shape-rendering:auto;text-rendering:auto;enable-background:accumulate"
     inkscape:connector-curvature="0" />
  <path
     inkscape:connector-curvature="0"
     id="path1516"
     d="M 28.5,27 A 1.5,1.5 0 0 0 27,28.5 1.5,1.5 0 0 0 28.5,30 1.5,1.5 0 0 0 30,28.5 1.5,1.5 0 0 0 28.5,27 Z m 0,0.849609 A 0.64999998,0.64999998 0 0 1 29.150391,28.5 0.64999998,0.64999998 0 0 1 28.5,29.150391 0.64999998,0.64999998 0 0 1 27.849609,28.5 0.64999998,0.64999998 0 0 1 28.5,27.849609 Z"
     style="color:#000000;clip-rule:nonzero;display:inline;overflow:visible;visibility:visible;opacity:1;isolation:auto;mix-blend-mode:normal;color-interpolation:sRGB;color-interpolation-filters:linearRGB;solid-color:#000000;solid-opacity:1;fill:#000000;fill-opacity:1;fill-rule:evenodd;stroke:none;stroke-width:3.77952766;stroke-linecap:square;stroke-linejoin:miter;stroke-miterlimit:4;stroke-dasharray:none;stroke-dashoffset:0;stroke-opacity:1;paint-order:normal;color-rendering:auto;image-rendering:auto;shape-rendering:auto;text-rendering:auto;enable-background:accumulate" />
  <path
     style="fill-rule:evenodd;stroke-width:1"
     inkscape:connector-curvature="0"
     id="path1518"
     d="m 27.804687,29.674595 c -0.12012,0.173209 -0.163981,0.195418 -0.257792,0.238949 -0.09381,0.04353 -0.348729,0.08574 -0.551414,0.08636 -0.331611,10e-4 -0.576199,0.02342 -0.994158,0.03673 -0.297537,0.0095 -0.68503,0.19307 -1.001323,0.398291 l -1,0.68519 0.56936,0.676123 c 0.04836,-0.02539 0.472288,-0.246897 0.662465,-0.3766 0.180522,-0.123118 0.528215,-0.356967 0.77071,-0.372807 0.519679,-0.03394 0.991069,-0.05074 0.991069,-0.05074 0.53441,-0.02736 1.096789,-0.112074 1.526613,-0.450665 0.429819,-0.338589 0.471726,-0.5611 0.479783,-0.781185 z"
     sodipodi:nodetypes="czsscccsssscc" />
  <rect
     style="color:#000000;clip-rule:nonzero;display:inline;overflow:visible;visibility:visible;opacity:1;isolation:auto;mix-blend-mode:normal;color-interpolation:sRGB;color-interpolation-filters:linearRGB;solid-color:#000000;solid-opacity:1;fill:none;fill-opacity:1;fill-rule:evenodd;stroke:#6699ff;stroke-width:0.1;stroke-linecap:square;stroke-linejoin:miter;stroke-miterlimit:4;stroke-dasharray:none;stroke-dashoffset:0;stroke-opacity:1;paint-order:normal;color-rendering:auto;image-rendering:auto;shape-rendering:auto;text-rendering:auto;enable-background:accumulate"
     id="rect1520"
     width="16"
     height="16"
     x="36"
     y="21"
     rx="3.2557e-005"
     ry="4.7280799e-005" />
  <rect
     ry="3.0481871e-005"
     rx="3.2557e-005"
     y="27.701204"
     x="42"
     height="2.5787947"
     width="1"
     id="rect1522"
     style="color:#000000;clip-rule:nonzero;display:inline;overflow:visible;visibility:visible;opacity:1;isolation:auto;mix-blend-mode:normal;color-interpolation:sRGB;color-interpolation-filters:linearRGB;solid-color:#000000;solid-opacity:1;fill:#000000;fill-opacity:1;fill-rule:evenodd;stroke:none;stroke-width:3.7795279;stroke-linecap:square;stroke-linejoin:miter;stroke-miterlimit:4;stroke-dasharray:none;stroke-dashoffset:0;stroke-opacity:1;paint-order:normal;color-rendering:auto;image-rendering:auto;shape-rendering:auto;text-rendering:auto;enable-background:accumulate" />
  <path
     inkscape:connector-curvature="0"
     id="path1524"
     d="M 42.5,25 A 1.5,1.5 0 0 0 41,26.5 1.5,1.5 0 0 0 42.5,28 1.5,1.5 0 0 0 44,26.5 1.5,1.5 0 0 0 42.5,25 Z m 0,0.849609 A 0.64999998,0.65000004 0 0 1 43.150391,26.5 0.64999998,0.65000004 0 0 1 42.5,27.150391 0.64999998,0.65000004 0 0 1 41.849609,26.5 0.64999998,0.65000004 0 0 1 42.5,25.849609 Z"
     style="color:#000000;clip-rule:nonzero;display:inline;overflow:visible;visibility:visible;opacity:1;isolation:auto;mix-blend-mode:normal;color-interpolation:sRGB;color-interpolation-filters:linearRGB;solid-color:#000000;solid-opacity:1;fill:#000000;fill-opacity:1;fill-rule:evenodd;stroke:none;stroke-width:3.77952766;stroke-linecap:square;stroke-linejoin:miter;stroke-miterlimit:4;stroke-dasharray:none;stroke-dashoffset:0;stroke-opacity:1;paint-order:normal;color-rendering:auto;image-rendering:auto;shape-rendering:auto;text-rendering:auto;enable-background:accumulate" />
  <path
     inkscape:connector-curvature="0"
     id="path1526"
     d="M 42.5,30 A 1.5,1.5 0 0 0 41,31.5 1.5,1.5 0 0 0 42.5,33 1.5,1.5 0 0 0 44,31.5 1.5,1.5 0 0 0 42.5,30 Z m 0,0.849609 A 0.64999998,0.64999998 0 0 1 43.150391,31.5 0.64999998,0.64999998 0 0 1 42.5,32.150391 0.64999998,0.64999998 0 0 1 41.849609,31.5 0.64999998,0.64999998 0 0 1 42.5,30.849609 Z"
     style="color:#000000;clip-rule:nonzero;display:inline;overflow:visible;visibility:visible;opacity:1;isolation:auto;mix-blend-mode:normal;color-interpolation:sRGB;color-interpolation-filters:linearRGB;solid-color:#000000;solid-opacity:1;fill:#000000;fill-opacity:1;fill-rule:evenodd;stroke:none;stroke-width:3.77952766;stroke-linecap:square;stroke-linejoin:miter;stroke-miterlimit:4;stroke-dasharray:none;stroke-dashoffset:0;stroke-opacity:1;paint-order:normal;color-rendering:auto;image-rendering:auto;shape-rendering:auto;text-rendering:auto;enable-background:accumulate" />
  <path
     inkscape:connector-curvature="0"
     id="path1528"
     d="M 46.5,26 A 1.5,1.5 0 0 0 45,27.5 1.5,1.5 0 0 0 46.5,29 1.5,1.5 0 0 0 48,27.5 1.5,1.5 0 0 0 46.5,26 Z m 0,0.849609 A 0.64999998,0.64999998 0 0 1 47.150391,27.5 0.64999998,0.64999998 0 0 1 46.5,28.150391 0.64999998,0.64999998 0 0 1 45.849609,27.5 0.64999998,0.64999998 0 0 1 46.5,26.849609 Z"
     style="color:#000000;clip-rule:nonzero;display:inline;overflow:visible;visibility:visible;opacity:1;isolation:auto;mix-blend-mode:normal;color-interpolation:sRGB;color-interpolation-filters:linearRGB;solid-color:#000000;solid-opacity:1;fill:#000000;fill-opacity:1;fill-rule:evenodd;stroke:none;stroke-width:3.77952766;stroke-linecap:square;stroke-linejoin:miter;stroke-miterlimit:4;stroke-dasharray:none;stroke-dashoffset:0;stroke-opacity:1;paint-order:normal;color-rendering:auto;image-rendering:auto;shape-rendering:auto;text-rendering:auto;enable-background:accumulate" />
  <path
     style="fill-rule:evenodd;stroke-width:1"
     inkscape:connector-curvature="0"
     id="path1530"
     d="m 45.804687,28.674595 c -0.12012,0.173209 -0.163981,0.195418 -0.257792,0.238949 -0.09381,0.04353 -0.348729,0.08574 -0.551414,0.08636 -0.331611,10e-4 -0.576199,0.02342 -0.994158,0.03673 -0.297537,0.0095 -0.68503,0.19307 -1.001323,0.398291 l -1,0.68519 0.56936,0.676123 c 0.04835,-0.02539 0.472288,-0.246897 0.662465,-0.3766 0.180522,-0.123118 0.528215,-0.356967 0.77071,-0.372807 0.519679,-0.03394 0.991069,-0.05074 0.991069,-0.05074 0.53441,-0.02736 1.096789,-0.112074 1.526613,-0.450665 0.429819,-0.338589 0.471726,-0.5611 0.479783,-0.781185 z"
     sodipodi:nodetypes="czsscccsssscc" />
  <rect
     style="color:#000000;clip-rule:nonzero;display:inline;overflow:visible;visibility:visible;opacity:1;isolation:auto;mix-blend-mode:normal;color-interpolation:sRGB;color-interpolation-filters:linearRGB;solid-color:#000000;solid-opacity:1;fill:#000000;fill-opacity:1;fill-rule:evenodd;stroke:none;stroke-width:3.77952766;stroke-linecap:square;stroke-linejoin:miter;stroke-miterlimit:4;stroke-dasharray:none;stroke-dashoffset:0;stroke-opacity:1;paint-order:normal;color-rendering:auto;image-rendering:auto;shape-rendering:auto;text-rendering:auto;enable-background:accumulate"
     id="rect1532"
     width="1"
     height="4.5599999"
     x="6"
     y="5.7199993"
     rx="3.2557e-005"
     ry="5.3900112e-005" />
  <path
     inkscape:connector-curvature="0"
     style="color:#000000;clip-rule:nonzero;display:inline;overflow:visible;visibility:visible;opacity:1;isolation:auto;mix-blend-mode:normal;color-interpolation:sRGB;color-interpolation-filters:linearRGB;solid-color:#000000;solid-opacity:1;fill:#000000;fill-opacity:1;fill-rule:evenodd;stroke:none;stroke-width:3.77952766;stroke-linecap:square;stroke-linejoin:miter;stroke-miterlimit:4;stroke-dasharray:none;stroke-dashoffset:0;stroke-opacity:1;paint-order:normal;color-rendering:auto;image-rendering:auto;shape-rendering:auto;text-rendering:auto;enable-background:accumulate"
     d="M 6.5,3 A 1.5,1.5 0 0 0 5,4.5 1.5,1.5 0 0 0 6.5,6 1.5,1.5 0 0 0 8,4.5 1.5,1.5 0 0 0 6.5,3 Z m 0,0.849609 A 0.64999998,0.65000004 0 0 1 7.1503906,4.5 0.64999998,0.65000004 0 0 1 6.5,5.150391 0.64999998,0.65000004 0 0 1 5.8496094,4.5 0.64999998,0.65000004 0 0 1 6.5,3.849609 Z"
     id="path1534" />
  <path
     inkscape:connector-curvature="0"
     style="color:#000000;clip-rule:nonzero;display:inline;overflow:visible;visibility:visible;opacity:1;isolation:auto;mix-blend-mode:normal;color-interpolation:sRGB;color-interpolation-filters:linearRGB;solid-color:#000000;solid-opacity:1;fill:#000000;fill-opacity:1;fill-rule:evenodd;stroke:none;stroke-width:3.77952766;stroke-linecap:square;stroke-linejoin:miter;stroke-miterlimit:4;stroke-dasharray:none;stroke-dashoffset:0;stroke-opacity:1;paint-order:normal;color-rendering:auto;image-rendering:auto;shape-rendering:auto;text-rendering:auto;enable-background:accumulate"
     d="M 6.5,10 A 1.5,1.5 0 0 0 5,11.5 1.5,1.5 0 0 0 6.5,13 1.5,1.5 0 0 0 8,11.5 1.5,1.5 0 0 0 6.5,10 Z m 0,0.849609 A 0.64999998,0.64999998 0 0 1 7.1503906,11.5 0.64999998,0.64999998 0 0 1 6.5,12.150391 0.64999998,0.64999998 0 0 1 5.8496094,11.5 0.64999998,0.64999998 0 0 1 6.5,10.849609 Z"
     id="path1536" />
  <path
     style="color:#000000;clip-rule:nonzero;display:inline;overflow:visible;visibility:visible;opacity:1;isolation:auto;mix-blend-mode:normal;color-interpolation:sRGB;color-interpolation-filters:linearRGB;solid-color:#000000;solid-opacity:1;fill:#000000;fill-opacity:1;fill-rule:evenodd;stroke:none;stroke-width:3.77952766;stroke-linecap:square;stroke-linejoin:miter;stroke-miterlimit:4;stroke-dasharray:none;stroke-dashoffset:0;stroke-opacity:1;paint-order:normal;color-rendering:auto;image-rendering:auto;shape-rendering:auto;text-rendering:auto;enable-background:accumulate"
     d="M 10.5,6 A 1.5,1.5 0 0 0 9,7.5 1.5,1.5 0 0 0 10.5,9 1.5,1.5 0 0 0 12,7.5 1.5,1.5 0 0 0 10.5,6 Z m 0,0.849609 A 0.64999998,0.64999998 0 0 1 11.150391,7.5 0.64999998,0.64999998 0 0 1 10.5,8.150391 0.64999998,0.64999998 0 0 1 9.8496094,7.5 0.64999998,0.64999998 0 0 1 10.5,6.849609 Z"
     id="path1538"
     inkscape:connector-curvature="0" />
  <path
     sodipodi:nodetypes="czsscccsssscc"
     d="M 9.8046875,8.674595 C 9.6845665,8.847804 9.6407058,8.870013 9.546895,8.913544 9.453084,8.957074 9.1981658,8.999284 8.9954806,8.999904 8.6638701,9.000904 8.4192818,9.023324 8.001323,9.036634 7.7037861,9.046121 7.3162927,9.229704 7,9.434925 l -1,0.68519 0.5693602,0.676123 c 0.048355,-0.02539 0.4722883,-0.246897 0.662465,-0.3766 0.1805219,-0.123118 0.5282147,-0.356967 0.7707101,-0.372807 0.5196783,-0.03394 0.9910688,-0.05074 0.9910688,-0.05074 0.53441,-0.02736 1.0967889,-0.112074 1.5266129,-0.4506653 C 10.950036,9.206837 10.991943,8.984325 11,8.764241 Z"
     id="path1540"
     inkscape:connector-curvature="0"
     style="fill-rule:evenodd;stroke-width:1" />
</svg>
